<?xml version="1.0" encoding="utf-8"?>
<!-- Generator: Adobe Illustrator 27.0.1, SVG Export Plug-In . SVG Version: 6.00 Build 0)  -->
<svg version="1.1" id="Ebene_1" xmlns="http://www.w3.org/2000/svg" xmlns:xlink="http://www.w3.org/1999/xlink" x="0px" y="0px"
	 viewBox="0 0 1920 500" style="enable-background:new 0 0 1920 500;" xml:space="preserve">
<style type="text/css">
	.st0{fill:#B5CF81;}
	.st1{fill:#ABC46E;}
	.st2{fill:#ABC46E;stroke:#000000;stroke-width:3;stroke-miterlimit:10;}
</style>
<rect class="st0" width="1920" height="500"/>
<g id="Ebene_2_00000141420777490224409680000013471665665727360661_">
	<path class="st1" d="M1688.7,253.4c-3.8-14.6-13-24.2-13.3-24.7c-10.7-11.9-28.9-14.9-36.3-15.6c-13.3-1.3-21.5,1.7-21.7,1.8
		c-30.1,10.4-25.1,40.2-24.8,41.9c1.1,7.4,2.7,12.2,4.2,17.2l0.1,0.6c4.5,14.4,10.8,25.7,18.6,33.1c8.4,8.1,18.1,8.5,18.4,8.5
		c1.5,0.3,3.1,0.3,4.6,0.3c6.2,0,11.8-1.1,16-2c22.2-4.6,30.4-22,30.7-22.7C1690.2,281.7,1691.8,264.9,1688.7,253.4z M1681,290.1
		c0,0.1-7.7,16.3-27.8,20.5c-5.2,1-12.2,2.2-19.3,1.5c0,0-8.4-0.3-15.7-7.3c-7.3-7-13.2-17.5-17.5-31.3l-0.1-0.6
		c-1.5-4.9-2.9-9.5-4.1-16.7v-0.1c-0.1-1.1-5.2-27.8,22.2-37.3c0,0,5-1.8,13.7-1.8c2,0,4.1,0.1,5.9,0.4c5.3,0.4,23.7,2.9,33.7,14.2
		c0,0.1,8.7,9.4,12.3,22.8C1687,264.9,1685.6,280.9,1681,290.1z"/>
	<path class="st1" d="M1716.3,256.6c-2.4-16-8.4-27.9-13.9-37.7c-10-18.1-24.1-27.9-24.7-28.3c-7.9-5.3-16.4-8.1-26.9-9
		c-20-1.5-37.6,5.8-38.4,6.2c-23.4,9.8-33.1,23.3-33.4,23.8c-4.2,5.5-7.9,13.2-10,20.9c-3.2,12.2,1.3,27.2,1.4,27.8
		c4.1,14.4,7.8,29,7.8,29.2c5,22.4,18,35.2,18.5,35.6c5.6,5.6,11.6,10.1,18.1,13.2c7.4,3.5,15.1,4.9,15.4,4.9
		c4.5,0.7,9.1,1.1,13.7,1.1c8.5,0,17-1.3,24-4.2c16.3-6,26.2-16.3,26.5-16.5c8.6-7.7,15.4-18.2,18.8-28.7
		C1719.7,275.1,1716.5,257.3,1716.3,256.6z M1709.5,293.8c-3.1,9.8-9.5,19.6-17.7,27.1c-0.1,0-9.7,9.8-25.1,15.6
		c-10.2,3.9-23.3,4.8-35.6,2.7c0,0-7.4-1.3-14.3-4.5c-6-2.9-11.8-7.2-17-12.5c-0.1-0.1-12.6-12.5-17.4-33.6c0-0.1-3.8-14.9-7.8-29.4
		c0-0.1-4.2-14.4-1.3-25.5c2-7.2,5.3-14.4,9.3-19.5c0.1-0.1,2.4-3.4,7.5-7.8c5.1-4.4,13-10,24-14.6c0.1-0.1,14.3-6,31.1-6
		c1.8,0,3.5,0.1,5.2,0.4c9.8,0.7,17.5,3.2,25,8.3c0.1,0.1,13.9,9.7,23.4,26.9c5.6,10,11.1,21,13.5,36.5
		C1712.3,257.7,1715.5,275.3,1709.5,293.8z"/>
	<path class="st1" d="M1765.5,261.5c-0.7-9.3-2.7-18.6-5.9-27.9c-2.7-7.9-6.5-15.7-10.9-23.6c-3.4-5.9-7.4-11.8-11.8-17.5
		c-3.5-4.8-7.6-10-10.9-13.9c-6.6-7.4-13-12.1-13.5-12.3c-4.1-2.9-9.9-6.7-17.7-11.2c-3.7-2.2-7.2-4.1-9.7-5.5
		c-2.5-1.4-4.2-2.3-4.2-2.3c-6.6-3.9-13.7-6.2-20.5-8.1c-9.9-2.8-17.8-2.8-17.9-2.8c-20.1-0.7-38.8,12.5-39.5,13
		c-1.5,1-2.9,2-4.5,2.9c-3,2-5.6,3.6-8.1,5c-5.3,2.9-11.8,6.2-11.9,6.2c-7.4,3.6-14.2,9.7-14.4,10c-4.8,4.3-8.8,9.7-11.5,13.3
		c-6.7,9.2-9,15.3-9.1,15.4c-3.5,8.1-5.9,17.7-6.9,28.2c-0.8,8.8-0.8,18.4,0,28c0.7,8,1.8,13,1.8,13.3c0.4,1.3,0.7,2.7,1,3.9
		c0.8,3.5,1.7,6.7,2.2,10.1c1.5,7.6,1.3,13.6,1.3,13.7c0,5.5,0.3,9.8,1,13.2c0.7,3.2,1.4,5.8,2.4,8c2.1,5,4.2,9,4.3,9.1
		c4.2,7.6,7.4,12.6,10.9,17c14.4,17.7,34.2,26.1,35,26.3c9.5,4.2,21.7,6.3,36.2,6.3c3.5,0,7.1-0.1,10.9-0.8
		c9.4-0.6,25.2-3.8,25.9-3.9c5.2-1,17.7-3.8,27.2-7.1c7.6-2.7,14.7-5.9,21.2-9.5c10.2-5.7,16.3-11.5,16.4-11.6
		c13-11.9,21.2-24.8,26.4-41.8C1767.6,282,1765.7,262.2,1765.5,261.5z M1756.8,303.9c-4.9,16.1-12.8,28.5-25.2,39.8
		c0,0-5.8,5.5-15.6,11.1c-6.3,3.5-13.2,6.7-20.5,9.2c-8.7,3.1-20.6,5.9-26.6,7c-0.1,0-16.3,3.4-25.4,3.9
		c-18.8,1.1-33.9-0.7-45.1-5.6c-0.3,0-19.8-8.3-33.5-25.1c-3.4-4.1-6.4-9-10.5-16.3c0,0-2.1-3.8-4.2-8.7c-0.8-1.8-1.5-4.3-2.1-7.1
		c-0.7-3.1-1-7.2-1-12.2c0-0.3,0.3-6.6-1.3-14.6c-0.6-3.4-1.4-6.7-2.2-10.2c-0.4-1.3-0.7-2.5-1-3.9c0-0.1-1.1-5.1-1.8-12.8
		c-0.8-9.4-0.8-18.6,0-27.2c1-10.2,3.2-19.2,6.6-27.1c0-0.1,2.4-5.8,8.7-14.6c2.5-3.5,6.3-8.5,10.8-12.6c0-0.1,6.6-6,13.5-9.4
		c0,0,6.6-3.2,12.1-6.2c2.7-1.4,5.6-3.4,8.4-5.2c1.4-1,2.9-2,4.5-3c0.1-0.1,17.7-12.5,35.9-12.5c0.4,0,0.8,0,1.1,0.1
		c0.1,0,7.6,0,16.8,2.7c6.5,1.8,13.3,4.1,19.6,7.7c0,0,6.4,3.5,13.7,7.9c3.8,2.2,7.2,4.3,10.1,6.1c2.9,1.8,5.4,3.5,7.3,5
		c0.1,0.1,6.4,4.6,12.8,11.8c3.4,3.8,7.3,9,10.8,13.6c4.3,5.6,8.1,11.3,11.5,17.1c4.5,7.4,8,15.1,10.7,22.7c3.2,9,5,17.9,5.7,26.9
		C1761.5,262.5,1763.4,282.1,1756.8,303.9z"/>
	<path class="st1" d="M1816.3,256.2c-0.6-3.7-2.2-9.5-3.8-13.5c-2.1-5.6-4.3-10.1-4.5-10.2c-3.1-6.3-6-12.8-9.1-19.6
		c-5.6-12.6-10.1-25.1-10.1-25.2c-1.7-4.5-3.6-8.7-6.2-12.6c-3.9-6.3-5.9-8.7-8.3-11.3c-0.4-0.6-0.8-1.1-1.4-1.7
		c-3.4-3.9-6.4-7.3-9.1-10.1c-4.5-4.6-7.8-7.4-12.2-11.1c-1.1-0.8-2.1-1.7-3.2-2.7c-4.9-4.1-14.9-10.9-18.9-13.6l-0.1-0.1
		c-3.4-2.4-15.3-10.2-25.9-15.1c-1.5-0.8-3.2-1.5-4.8-2.2c-7.1-3.2-14.4-6.6-20.8-8.8c-7.3-2.4-14.3-3.7-19.5-4.4
		c-5.2-0.6-8.8-0.7-9.2-0.7c-9.5,0.1-18.6,1.1-27.6,3c-14.4,2.9-24.5,10.2-25.4,10.8l-0.6,0.3c-3.4,2.2-5.3,3.5-9.1,5.8
		c-4.3,2.5-8,4.2-11.4,5.9c-10.5,4.8-17.8,7.3-23.7,9.4c-3.9,1.4-7.1,2.5-10,3.8c-3.1,1.4-15.7,8.3-22.2,16.3
		c-1.4,1.7-2.7,3.4-2.7,3.5c-3.5,5-6.6,13.2-6.7,13.5c0,0-2.7,5.9-5.2,11.8c-2.9,7-4.8,16-4.8,16.3c-1.8,8.1-2.7,18.1-2.7,29.6
		c0.1,26.2,5.3,52.2,5.3,52.3c1.3,7.7,1.5,14.9,1,20.5c-0.8,7-2.8,16.8-2.8,17c-1.3,6.6-1.3,10.7-0.7,15.6
		c0.4,4.9,1.8,10.1,3.8,15.1c3.7,9.3,10,16.4,10.1,16.5c3.2,4.1,4.3,5.9,5.6,8.5c1.5,3.2,3.7,9,3.7,9c2.7,8,9.7,13.3,9.9,13.5
		c4.2,3.2,9.5,6.6,15.8,10c8.4,4.5,15.6,7.7,15.7,7.7l36.4,14.3c7.7,3.1,12.9,3.9,18.1,4.6c2.7,0.3,5.5,0.4,8.1,0.4
		c6.6,0,12.3-0.8,12.5-0.3c11.4-2,23.3-3.9,33.4-5.1c19.1-2.2,32.2-3.1,32.4-3.1c25.4-1.7,33.7-9,41.1-15.4c0.6-0.6,1-1,1.5-1.4
		c2.1-1.8,4.1-3.6,6-5.3c3.1-2.7,6-5.3,9.2-8l13.9-11.4c10.9-9.4,16.8-21.2,21.2-31.5c6.3-15,9.4-28,9.5-28.6l7.2-28.6
		C1818.5,276,1818,266.4,1816.3,256.2z M1811.1,287.7l-7.2,28.7c0,0.1-3.1,13.3-9.2,28c-4.2,9.8-9.8,21-20,29.9l-13.7,11.3
		c-3.4,2.8-6.3,5.3-9.4,8.1c-2,1.7-3.9,3.4-6,5.2c-0.4,0.4-1,1-1.5,1.4c-7.1,6.3-14.6,12.8-38.5,14.3c0,0-13.3,0.8-32.5,3.1
		c-10.2,1.3-22.2,3.1-33.5,5.1c-0.1,0-10.8,1.4-19.5,0.3c-4.9-0.6-9.8-1.4-17.1-4.3l-36.3-14.3c0-0.1-7.1-3.1-15.3-7.6
		c-6.2-3.2-11.2-6.5-15.3-9.5c0,0-6.2-4.6-8.6-11.5c-0.1-0.3-2.1-5.9-3.8-9.4c-1.3-3-2.5-5-6.2-9.5c0,0-6-6.9-9.4-15.3
		c-2-4.8-3.1-9.4-3.7-14c-0.4-4.5-0.6-8.1,0.7-14.2c0-0.4,2-10.1,2.8-17.4c0.6-6,0.3-13.5-1.1-21.6c0-0.3-5.1-25.8-5.2-51.6
		c-0.1-11.2,0.7-20.9,2.5-28.7c0,0,1.8-8.8,4.6-15.4c2.5-5.9,5.2-11.8,5.2-11.9c0,0,3.2-8,6.3-12.8c0,0,1.1-1.7,2.4-3.2
		c5.9-7.3,17.9-13.9,20.6-15.1c2.7-1.3,5.8-2.2,9.5-3.6c5.6-2,13.3-4.8,24.1-9.5c3.5-1.8,7.1-3.5,11.6-6.2c3.9-2.2,6-3.6,9.4-5.9
		l0.6-0.4c0.1,0,10.1-7.3,23.8-10.1c8.8-1.8,17.7-2.8,26.9-2.9c0.1,0,13.5,0,27.2,4.8c6.2,2.1,13.3,5.5,20.3,8.7
		c1.5,0.9,3.2,1.5,4.8,2.2c7,3.1,16.5,8.7,25.4,14.7l0.1,0.1c3.1,2.1,13.6,9.2,18.5,13.3c1.1,1,2.2,1.8,3.2,2.7
		c4.3,3.6,7.6,6.3,11.8,10.8c2.7,2.7,5.8,6,9,10c0.6,0.6,1.1,1.1,1.5,1.7c2.1,2.5,4.1,4.8,7.8,10.8c2.4,3.7,4.2,7.7,5.8,11.8
		c0,0,4.5,12.6,10.2,25.5c3.1,7,6.2,13.5,9.2,19.8c0,0,2.2,4.5,4.3,9.8c1.5,3.8,3.1,9.4,3.6,12.8
		C1813.6,266.3,1814.2,275.4,1811.1,287.7z"/>
	<path class="st1" d="M1853.2,271.2c-0.4-9.7-2.2-19.4-5.3-29.6c-2.4-8.1-8.4-17.7-8.7-18.1c-7.6-12.3-13-26.1-16.4-35.2
		c-4.2-11.2-6.7-19.9-6.7-19.9c-2.4-8.1-4.2-13.2-6.3-17.4c-1.1-2.2-4.6-9.1-10.5-14.6c-3.9-3.7-7.3-6.9-9.8-9.4l-0.7-0.7
		c-2.2-2.4-6.6-6.9-9.1-10.5c-1.4-2-5.1-7.3-9.7-11.6c-1.4-1.3-4.5-4.2-13.2-9.5c-5.9-3.6-10.7-6.2-16.1-9.1
		c-8-4.2-16.3-8-23.4-11.1c-4.9-2.1-15-6.3-28.2-10.4c-14.3-4.5-23.8-6.3-24.2-6.3c-15.1-3.1-31-0.1-41.6,2.8
		c-12.3,3.5-22.6,10.2-23,10.5c-10.7,6.9-19.2,11.5-27.5,15l-7.8,3.4c-3.2,1.3-5.6,2.3-7.9,3.3c-2.3,1-4.5,1.9-7.3,3
		c-7.2,2.9-19.6,7.9-19.8,7.9l-19.8,7.6c-16.3,6.7-25.7,20.7-29.7,28.5c-5.8,10.9-10.2,24-10.4,24.5c-2.7,7.6-4.6,14.2-6.2,20.6
		c-1.4,5.8-2.2,11.4-2.8,16.7c-1.3,12.9-1,19.8-0.7,28.2c0.1,4.2,0.4,10.7,0.6,16l0.1,5.9c0.3,7.7,2.9,14,3.1,14.3
		c3.1,7.6,4.2,14.2,4.9,19.8c1.5,11.5-0.7,19.2-2.1,23.8c-0.3,0.7-0.4,1.4-0.6,2c-2.1,7.6-2.2,14.9-2.2,17.5
		c0.1,9.4,1.3,17,2.5,23.7c0.7,3.8,2,7.6,3.8,11.8c2.4,5,5.9,9.7,6,9.8l0.6,0.7c2.8,3.8,4.6,6,6.7,9.4c2.8,4.2,5.3,7.9,7.3,10.9
		l1,1.4c1.4,2.1,2.7,3.6,4.3,5.9c1.1,1.4,2.4,3.1,4.1,5.3l9,12.1c4.5,5.5,9.2,8.8,13.2,11.3c7.3,4.6,16.5,7.3,16.8,7.4
		c2.1,0.7,4.8,1.3,7.4,1.8c2,0.4,4.2,1,5.9,1.4c3.5,1,5.5,1.7,8.6,2.9c8,3.2,19.6,8.1,19.8,8.1c9.2,3.8,18.9,6,29.7,7.2
		c5.2,0.6,9.8,0.7,13.7,0.7c6.6,0,10.8-0.4,11.1-0.6c33.4-2.7,65.9-3.7,66.3-3.7c10.5-0.4,17.7-1.1,24-2.1
		c13.2-2.1,20.9-5.3,21.2-5.5c8.6-3.5,14-7.7,21.3-13.9c17.7-14.7,37.1-35.8,37.3-35.9c11.1-10.9,18.9-24.5,22.7-31.7
		c6.3-11.9,9-19.9,10.8-25.1c0.3-0.6,0.6-1.3,0.7-1.8c1.8-5.2,3.1-9.5,5.6-19.8c2.4-9.8,4.3-19.3,4.3-19.5
		C1852.2,290.1,1853.6,280.6,1853.2,271.2z M1845.9,301.1c0,0-2,9.7-4.3,19.2c-2.5,10.1-3.6,14.3-5.5,19.3c-0.3,0.6-0.4,1.1-0.7,1.8
		c-1.8,5-4.5,12.8-10.7,24.5c-6.2,11.8-14.2,23-22,30.9c-0.1,0.1-19.3,21-36.9,35.6c-7.3,6-12.2,10-20.3,13.2
		c-0.1,0-7.7,3.1-20.3,5.2c-6.2,1.1-13.2,1.7-23.5,2.1c-0.3,0-33,1-66.5,3.6c-0.1,0-10.5,1.3-24-0.1c-10.4-1.1-19.6-3.4-28.5-6.9
		c-0.1,0-11.8-4.9-19.9-8.1c-3.2-1.3-5.3-2.1-9-3.1c-1.8-0.6-4.1-1.1-6.2-1.5c-2.5-0.6-5.2-1.3-7.1-1.8c0,0-8.8-2.7-15.7-7
		c-3.9-2.5-8.1-5.5-12.2-10.5l-9-11.9c-1.7-2.2-2.9-3.9-4.1-5.3c-1.7-2.1-2.9-3.6-4.2-5.6l-1-1.4c-2-3.1-4.5-6.7-7.1-10.9
		c-2.2-3.5-4.1-6-6.9-9.7l-0.6-0.8c0,0-3.4-4.3-5.5-9c-1.7-3.8-2.8-7.4-3.4-10.8c-1.1-6.6-2.2-13.9-2.4-23c0-2.7,0.1-9.3,2.1-16.4
		c0.1-0.6,0.3-1.3,0.6-2c1.4-4.9,3.8-13.2,2.2-25.6c-0.7-5.9-2-12.9-5.2-20.9c0-0.1-2.5-6-2.8-12.9l-0.1-5.9
		c-0.1-5.3-0.4-11.8-0.6-16c-0.3-8.1-0.4-15,0.7-27.5c0.4-5.2,1.4-10.7,2.7-16.1c1.5-6.3,3.5-12.8,6.2-20.2
		c0.1-0.1,4.6-13.3,10.2-24c3.9-7.3,12.6-20.5,27.6-26.6l19.6-7.6c0.1-0.1,3.2-1.3,7.3-2.9c4-1.6,9-3.5,12.6-5
		c5.5-2.2,8.8-3.6,15.1-6.3l7.8-3.4c8.6-3.5,17.1-8.3,28-15.3c0,0,10.1-6.7,21.7-10c7.2-2,16.7-3.9,26.8-3.9c4.3,0,8.7,0.3,13.2,1.3
		c0,0,9.7,1.8,23.7,6.2c13,4.1,23,8.1,27.8,10.2c7,3.1,15.3,6.7,23.1,10.9c5.5,2.9,10.1,5.5,16,9.1c8.4,5.2,11.2,8,12.5,9.1
		c4.4,4.1,7.9,9.1,9.1,11.1c2.7,3.9,7.1,8.5,9.5,11.1l0.6,0.7c2.5,2.7,5.9,5.9,10,9.7c5.2,4.9,8.4,11.4,9.5,13.5
		c2,3.9,3.7,8.8,5.9,16.7c0.1,0,2.7,8.8,6.9,20.2c3.4,9.4,9,23.3,16.7,35.9c0,0,5.9,9.5,8.3,17.1c3.1,9.8,4.8,19.2,5.2,28.5
		C1849.5,280.7,1848.2,289.6,1845.9,301.1z"/>
	<path class="st1" d="M1893.5,254.4c-2.1-9.3-5.5-18.8-9.7-26.8c-4.2-8.1-9.4-16.8-9.4-16.8c-13.7-23.3-23-61.5-23.1-61.8
		c-2.9-13-7.4-23.6-13.2-31.1c-2.4-3.2-5.2-5.6-8-7.7c-4.5-3.4-7.8-6-11.2-9.2c-0.4-0.4-1.1-1-1.7-1.5c-2.2-2.1-4.9-4.5-8.3-8.1
		c-3.5-3.8-4.6-5.9-5.9-8c-0.3-0.6-0.7-1.1-1-1.7c-2.4-3.9-4.1-6-6.2-8.3c-2.8-2.8-6.6-5.8-9.9-7.7c-8.3-4.8-20.9-8.3-21.4-8.4
		c-5.5-1.5-10-3.5-14.6-5.5c-1.3-0.6-2.7-1.1-3.9-1.7c-2.8-1.1-4.8-2-6.3-2.7c-4.5-2-5.8-2.5-11.4-4.6c-1.5-0.6-3.2-1.1-4.9-1.8
		c-6.6-2.5-14.1-5.5-23.3-8.4c-17.5-5.6-25.8-7-26.1-7c-7.8-1.8-16-2.5-24.4-2.4c-9,0.3-18.1,1.5-27.3,4.1
		c-12.3,3.2-18.6,6.4-21.6,8l-0.8,0.4c-3.2,1.5-15.3,8.8-18.9,11.1c-5.3,3.2-18,9.4-18.1,9.4l-26.8,12.2l-27.6,13.2
		c-5.2,2.5-9.5,4.6-13.5,6c-4.5,1.5-12.2,3.5-12.2,3.5l-7.7,1.8c-6.9,1.5-11.9,3.4-15.4,5.3c-5,2.9-9,6.6-11.9,11.5
		c-3.7,5.9-4.8,14.9-4.8,15.3c-0.8,7-1.8,10.5-3.5,14.6c-2.7,6.6-8,13.2-8,13.2l-0.1,0.1c-4.8,6.7-7.4,14.2-9.3,20.5
		c-4.1,13.6-5.5,26.6-5.5,27.2c-1.3,10.5-1.7,19.2-2,26.9l-0.1,2c-0.3,7,0,12.6,0.4,17.4c0.7,9.7,4.3,17.2,4.5,17.5
		c3.9,9,6.3,15.1,7.4,21c0.7,3.5,1,7.3,0.8,10.9c-0.3,5.1-1.5,10-1.5,10.1l-1.8,7.1c-7.4,27.9-3.6,46.3-3.4,47.8
		c3.4,22,29,47.2,30.1,48.4c11.2,10.9,21.2,21.6,28,30.1c2.9,3.6,5.1,6.4,6.9,8.7c2.4,3.2,4.2,5.5,6.2,7.6c3.2,3.4,5.7,5.8,9,8.3
		c2.7,2.1,4.9,3.4,7,4.5c0.6,0.1,1,0.4,1.4,0.7c8.3,4.8,19.1,5.6,19.5,5.6c8.7,0.7,14.9,2.4,22.6,5.2c10.7,3.8,19.6,8.3,19.6,8.3
		c5.2,2.8,10,4.9,14.2,6.7l1.3,0.6c4.3,1.9,8.6,3.3,12,4.2h39.9c0.2,0,0.3-0.1,0.5-0.2l2-0.6c3.9-1.1,7.1-2.1,10.1-3.1
		c6-2,10.2-3.2,15.4-4.6c7.9-2.1,21.3-1.7,32.1-1.4c12.3,0.3,30,1.1,30.1,1.1c12.1,0.6,22.4-1.1,28.6-2.1c3.9-0.6,7.6-1.4,10.2-2.1
		c4.9-1.1,10.1-3.2,16.7-6.6c4.5-2.4,14.2-7.7,26.9-18c9.2-7.3,13.6-12.8,13.7-12.9c3.9-4.6,6-7.8,8.3-11.2c0.7-1.1,1.4-2.1,2.2-3.4
		c7.3-10.7,9.8-14.2,13.3-19.1c1.3-1.7,2.5-3.2,3.8-4.9c2.5-3.2,5.2-6.7,7.4-10.4c4.1-6.9,6-11.8,8.3-17.4l0.4-1
		c1.7-4.2,3.6-10.9,5.5-16.8c0.7-2.2,1.4-4.5,2-6.4c2.8-8.8,4.9-17.1,6.2-22.4c2.5-11.1,11.8-54.3,11.9-54.8
		C1896,272.5,1895.8,264.5,1893.5,254.4z M1889.6,281.1c0,0.4-9.3,43.7-11.9,54.7c-1.3,5.3-3.2,13.3-6,22.1c-0.6,2-1.3,4.2-2,6.6
		c-1.7,5.8-3.6,12.3-5.3,16.5l-0.4,1c-2.1,5.5-3.9,10.2-7.8,16.8c-2.1,3.5-4.6,6.7-7.2,10c-1.4,1.7-2.7,3.4-3.9,5
		c-3.5,4.9-6,8.5-13.3,19.2c-0.8,1.1-1.5,2.2-2.2,3.4c-2.2,3.4-4.2,6.3-8,10.9c0,0-4.2,5.3-13,12.3c-9.1,7.1-18.6,13.6-26.2,17.4
		c-6.2,3.2-11.2,5.2-15.7,6.3c-2.7,0.7-6.2,1.5-9.9,2.1c-6.5,1.1-16.1,2.7-27.8,2.1c-0.1-0.1-17.8-1-30.1-1.3
		c-13.6-0.4-25.5-0.6-33.2,1.5c-5.2,1.4-9.5,2.8-15.6,4.6c-3,0.8-6.2,1.8-10.1,3.1l-2,0.6c-8.6,2.7-16,4.9-31.8,1.4
		c-0.1,0-9-1.7-17.5-5.5l-1.3-0.6c-4.1-1.8-8.8-3.9-13.9-6.6c-0.4-0.3-9.2-4.6-20.2-8.5c-8-2.9-14.4-4.6-23.7-5.5
		c0,0-10.2-0.8-17.7-5c-0.6-0.1-1-0.4-1.4-0.7c-2.1-1.3-4.1-2.2-6.5-4.2c-3.1-2.4-5.5-4.6-8.5-7.9c-1.7-2-3.5-4.2-5.9-7.3
		c-1.8-2.2-3.9-5-6.9-8.7c-7-8.7-17-19.5-28.3-30.6c-0.3-0.1-25.9-25.4-29-46v-0.1c-0.1-0.1-4.1-18.5,3.2-46l1.8-7.1
		c0.1-0.3,1.5-5.5,1.7-11.1c0.1-4.1-0.1-8-0.8-11.9c-1.1-6.3-3.6-12.8-7.7-22c0-0.1-3.5-7.3-4.1-16.1c-0.3-4.6-0.7-10.1-0.4-17
		l0.1-2c0.3-7.6,0.6-16.3,1.8-26.5c0-0.1,1.4-13.3,5.3-26.5c1.8-6.3,4.2-13,8.6-19.2c0.6-0.7,5.8-7.3,8.4-13.7
		c1.8-4.5,2.9-8.3,3.8-15.7c0,0,1-8.4,4.2-13.6c2.5-4.3,6-7.6,10.4-10.1c3.2-1.8,7.8-3.4,14.3-4.9l7.7-1.8c0.3,0,7.8-2,12.6-3.6
		c4.1-1.4,8.6-3.7,13.9-6.2l27.6-13.2l26.8-12.2c0.4-0.3,12.9-6.3,18.4-9.7c7.4-4.5,16.1-9.8,18.5-10.9l0.8-0.4
		c2.8-1.4,8.8-4.5,20.8-7.7c8.8-2.4,17.8-3.8,26.4-3.9c8-0.1,15.8,0.6,23.4,2.4c0,0,8.3,1.4,25.5,6.9c9,2.9,16.4,5.9,23,8.4
		c1.7,0.6,3.4,1.3,4.9,1.8c5.6,2.1,6.9,2.7,11.3,4.5c1.7,0.7,3.7,1.5,6.3,2.7c1.3,0.6,2.5,1.1,3.8,1.7c4.6,2,9.4,4.1,15.1,5.6
		c0.1,0,12.6,3.5,20.5,8c3.1,1.7,6.6,4.5,9.1,7c1.8,2,3.4,3.8,5.6,7.6c0.4,0.6,0.7,1,1,1.5c1.3,2.2,2.7,4.5,6.5,8.7
		c3.5,3.6,6.3,6.3,8.4,8.3c0.6,0.6,1.1,1.1,1.7,1.5c3.6,3.4,7,6.2,11.6,9.5c2.4,2,5,4.1,7.1,6.9c3.7,4.9,8.8,14,12.3,29.6
		c0.4,1.5,9.5,39.1,23.5,63.1c0,0,5,8.6,9.2,16.5c4.1,7.7,7.3,16.8,9.4,25.8C1891,264.9,1891.1,272.5,1889.6,281.1z"/>
	<path class="st1" d="M1610.4,0c-6.6,2.8-10.9,5.2-11.2,5.4c-12.3,7.1-21,12-28.5,16c-5,2.7-9.6,5-14.1,7.1c-4.5,2.1-8.9,4-13.5,6.1
		c-16.1,7-47,18.6-47.2,18.8c-19.2,7.3-35.6,7-35.9,7l-7.6,0.3c-11.5,1-21.9,4.9-32.5,12.5c-12.1,8.5-18.5,20.6-20.6,25.4
		c-1.7,3.5-3.1,7.7-4.5,11.8c-1.4,3.9-2.7,7.6-3.8,10c-1.5,3.1-3.4,5.5-5.5,8.1c-1.7,2.1-3.4,4.3-4.9,7c-3.5,6-4.2,12.5-4.4,13.3
		c-1,5.7-2.4,11.9-3.6,16c-2.8,8.5-6,14-6.2,14.2c-2.4,4.3-4.6,9.4-6.6,15c-2.9,8.5-4.3,15.3-4.3,15.6c-2,9.2-1.4,17-0.6,23.4
		c1.4,10.9,6.7,18.9,7.4,19.8c5.2,8.4,8.7,14.4,11.5,20.8c5.2,11.8,6.5,19.5,6.5,19.6c2.9,17.1-2,26.2-6.2,34.3
		c-5.3,10.2-7.6,17.4-7.7,17.7c-3.6,11.6-3.9,23.8-0.8,36c3.4,13.2,6.3,18.1,9.5,23.3l0.6,1c3.5,5.6,8.6,11.8,13.3,16
		c6,5.3,10.1,8,15.3,11.1c1.3,0.7,2.7,1.5,4.2,2.4c5.2,2.8,11.5,6.4,16.7,10.5c7.6,5.9,10.2,8.1,14.4,11.8c1.1,1,2.4,2.1,3.9,3.4
		c6.7,5.6,12.6,11.3,17.5,17c5.9,6.6,6.9,8.3,9,11.6c0.6,1,1.4,2.2,2.4,3.8c1.9,3,4,5.4,6.1,7.3h6.8c-3.3-2.1-6.6-4.9-9.5-9.4
		c-1-1.5-1.7-2.8-2.4-3.8c-2.2-3.5-3.2-5.2-9.4-12.2c-5.2-5.8-11.2-11.6-17.9-17.4c-1.5-1.3-2.8-2.4-3.9-3.4
		c-4.2-3.8-6.9-5.9-14.4-11.9c-5.5-4.4-11.9-8-17.1-10.9c-1.5-0.8-2.9-1.7-4.1-2.4c-5-3.1-8.7-5.5-14.6-10.7
		c-4.3-3.9-9.2-9.8-12.5-15l-0.6-1c-2.9-4.9-5.9-9.5-9-22.2c-2.9-11.5-2.7-22.8,0.7-33.8c0-0.1,2.2-7.2,7.4-17.1
		c4.3-8.3,9.7-18.5,6.6-37c0-0.4-1.3-8.4-6.7-20.8c-3-6.6-6.6-12.8-11.8-21.3l-0.1-0.1c0,0-5.5-7.6-6.7-17.8
		c-0.7-6.2-1.3-13.5,0.6-22c0-0.1,1.3-6.9,4.2-15.1c1.8-5.3,3.9-10.2,6.2-14.3c0.1-0.3,3.6-5.9,6.6-15c1.4-4.4,2.8-10.7,3.8-16.7
		v-0.1c0,0,0.6-6,3.8-11.6c1.4-2.4,3.1-4.5,4.6-6.6c2.1-2.7,4.2-5.5,5.9-8.8c1.3-2.5,2.5-6.3,3.9-10.4c1.3-3.9,2.7-8,4.2-11.4
		c2.1-4.5,8-15.7,19.2-23.7c10.1-7.2,19.8-10.9,30.3-11.8l7.3-0.3c0.7,0.1,17.5,0.3,36.6-6.9c0.3,0,31.3-11.8,47.4-18.8
		c9.4-4.1,17.7-7.8,28-13.3c7.6-3.9,16.1-9,28.6-16.1c0.1-0.1,9.2-5.2,21.2-9H1610.4z M1915.1,215.7c-3.4-2.7-6.7-5.7-9.8-9.2
		c-2.4-2.8-4.6-5.9-6.6-9.1c-5.9-9.8-8.7-20.8-10.4-28c-1.8-8.3-2.1-16.8-2.4-23.1c-0.3-7.1-1.3-18.6-1.3-18.8
		c-0.7-8.3-1.4-14.7-4.1-22.4c-3.1-8.8-7.7-14.9-11.6-19.8c-3.6-4.5-5.6-6.2-9.5-9.4c-6.6-5.5-11.6-10-14.9-13.5
		c-7.3-7.9-9.8-10.8-13.2-15.1c-3.2-4.4-10.1-11.9-14.3-16.1c-6.7-6.7-14.2-9.1-18.2-10.4l-0.8-0.3c-1.4-0.4-3.1-1-4.9-1.5
		c-2.7-0.8-5.6-1.7-7.8-2.5c-7-2.2-11.9-4.2-12.1-4.2l-20.1-6.9c-6.3-2-12.5-3.7-18.6-5.3H1716c11.4,2.4,23.2,5.5,35.3,9.2l19.9,6.9
		c0,0,5,1.8,12,4.2c2.4,0.7,5.3,1.7,8,2.5c1.8,0.6,3.5,1.1,4.9,1.5l0.8,0.3c3.7,1.1,10.5,3.4,16.5,9.2c4.2,4.1,10.8,11.6,14,15.7
		c3.4,4.3,6,7.6,13.3,15.4c3.4,3.7,8.5,8.3,15.4,13.9c3.9,3.1,5.5,4.6,9,8.8c3.8,4.6,8.1,10.2,10.9,18.5c2.5,7.3,3.2,13.5,3.9,21.3
		c0,0.1,1,11.6,1.3,18.6c0.3,6,0.6,15.1,2.5,23.8c1.7,7.6,4.8,18.9,10.9,29.2c2.1,3.5,4.5,6.7,7,9.7c3.4,3.6,6.9,7,10.5,9.8
		c2,1.6,4.8,3.8,7.7,6.1v-5.2C1918.2,218.1,1916.4,216.7,1915.1,215.7z M1905.9,394.8c0,0-1.4,5.2-3.2,10.1
		c-0.7,2.2-1.7,4.6-2.7,6.9c-0.4,1-0.8,2.1-1.3,3.1c-1.5,4.1-3.6,8.5-5.2,11.6c-2,4.3-3.9,7.9-6.7,11.9c-1,1.3-1.7,2.2-2.4,3.1
		c-1.3,1.5-2.5,2.9-4.6,6c-0.8,1.4-2,3.1-3.1,4.8c-1.5,2.2-3.2,4.8-5,7.6c-1.1,1.8-2.2,3.8-3.5,5.9c-3.5,6-7.8,13.6-13,19.3
		c-6,6.6-11.3,11.4-16.5,14.9h7c4-3.2,8.1-7.1,12.5-11.9c5.5-6,10-13.7,13.6-20.1c1.1-2.1,2.4-4.1,3.4-5.8c1.7-2.7,3.4-5.2,4.9-7.4
		c1.3-1.7,2.4-3.4,3.2-4.8c2-2.8,3.1-4.2,4.3-5.8c0.7-0.8,1.5-1.8,2.5-3.2c3.1-4.3,5-8,7.1-12.5c1.5-3.1,3.6-7.7,5.3-11.8
		c0.4-1.1,0.8-2.1,1.3-3.1c1-2.4,2-4.8,2.8-7c1.8-5.2,3.4-10.2,3.4-10.4c3.4-10.9,6.9-21.1,10.1-30.2v-12.9
		C1915.7,364.8,1910.7,379.1,1905.9,394.8z"/>
	<path class="st1" d="M1559.8,0l-9.1,5.3c-7.1,3.9-15.1,7.9-23.8,11.8c-15,6.9-27.1,11.2-27.2,11.2c-8,3.2-16.8,5.7-21.3,7
		c-9.1,2.5-22.4,3.1-22.6,3.1c-11.1,0.7-20.2,2.1-27.9,4.3c-10.4,3.1-16.5,6.9-22.2,10.4c-0.8,0.4-1.5,1-2.4,1.4l-1,0.6
		c-5.3,3.1-10.7,6.5-18,12.8c-3.1,2.7-7.2,7-9,9.8c-3.1,4.6-4.8,8.4-4.8,8.5c-5.9,13.6-13.6,23.1-13.7,23.3l-0.1,0.1
		c-2.4,3.5-4.9,7.1-6.3,10.7c-2.5,6-4.2,13-4.2,13.3c-1.4,6.3-3.4,12.3-5.6,18.1c-4.1,10.1-8,15.7-8.1,15.8
		c-3.8,5.8-6.7,11.4-9.1,17.4c-4.9,12.6-4.9,25.1-4.9,25.5c-0.4,9.2,1.4,17.9,5,25.7c3.1,6.4,8.8,14,11.9,18.1
		c0.7,0.8,1.1,1.5,1.5,2.1c4.5,6.2,8.4,13.6,10.2,17.5c5.2,10.7,7.2,20.3,7.2,20.5c1.8,9.2,0.4,15.1-0.8,19.2
		c-2.2,7.1-4.2,11.4-6.7,16.4c-1,2-1.8,3.6-2.7,5.2c-1.5,2.8-2.9,5.8-5.8,11.6c-9.7,20.5-3.6,37.4-3.1,38.8c1.8,5.8,4.1,11.1,6,15.7
		l1.1,2.5c3.5,8.3,5.9,13.5,6,13.6c4.6,8.6,10.2,15.6,12.6,18c3.6,3.6,8.4,6.5,15.1,9.2c4.2,1.7,14.9,6.6,21,10.8
		c10.2,7,20.5,14.7,20.5,14.7c9.7,8,14.4,12.2,19.6,17c6.4,5.9,10.4,10.5,12.5,13h5.4l-0.2-0.3c-0.1-0.3-4.6-6.5-14.6-15.7
		c-5.2-4.9-9.9-9-19.8-17.2c0-0.1-10.4-7.9-20.8-14.9c-6.4-4.3-17.5-9.4-21.9-11.2c-6.3-2.5-10.5-5-13.9-8.3
		c-2.1-2.1-7.4-8.8-11.8-16.8c0-0.1-2.5-5.2-5.9-13.3l-1.1-2.5c-2-4.6-4.2-9.8-5.9-15.4v-0.1c0-0.1-6.2-16.3,2.9-35.6
		c2.7-5.9,4.2-8.7,5.6-11.5c0.8-1.7,1.7-3.2,2.7-5.3c2.5-5.1,4.6-9.5,7-17c1.3-4.2,2.8-10.9,0.8-21.3c-0.1-0.4-2.1-10.4-7.6-21.6
		c-1.8-3.9-5.9-11.6-10.5-18.1c-0.4-0.6-0.8-1.3-1.6-2.1c-3.1-3.9-8.7-11.2-11.5-17.2c-3.4-7.1-4.9-15.1-4.6-23.8
		c0-0.1,0-12.1,4.6-24c2.2-5.6,5-11.1,8.7-16.5c0.1-0.1,4.3-6,8.5-16.7c2.2-5.9,4.2-12.2,5.8-18.6c0,0,1.5-6.9,3.9-12.6
		c1.4-3.1,3.7-6.6,5.9-9.8c0.7-1,8.3-10.5,14.3-24.4c0,0,1.5-3.6,4.3-7.8c1.7-2.4,5.5-6.6,8.3-9c7-6,12.3-9.2,17.4-12.3l1-0.6
		c0.8-0.4,1.5-0.9,2.4-1.4c5.6-3.5,11.4-7,21.2-9.8c7.4-2.1,16.3-3.5,26.9-4.2c0.6,0,13.9-0.6,23.4-3.2c4.6-1.3,13.7-3.8,21.7-7
		c0.1,0,12.2-4.3,27.5-11.2c8.8-3.9,17-8,24.2-11.9l16.4-9.5H1559.8z M1914.1,457.6c-0.6,0.8-1.1,1.5-1.7,2.4
		c-3.6,5.2-8.1,11.4-18.1,23c-5.6,6.5-11,12.2-16.2,17h5.3c4.5-4.4,9.2-9.4,14.1-15c10.1-11.8,14.7-18.1,18.4-23.3
		c0.6-0.7,1.1-1.5,1.7-2.4c0.8-1.2,1.6-2.5,2.4-3.8v-7.9C1918.2,451.1,1916.2,454.4,1914.1,457.6z M1919.6,184
		c-6.4-10.2-9.7-21.3-9.7-21.5c-6.7-25.9-6.6-48.4-6.6-48.6c0-0.1,0-7.8-0.6-17c-0.6-9.5-3.9-16.7-7.3-23.1
		c-4.8-9-9.2-13.7-13.4-17.5c-2.8-2.5-10.1-9.2-12.9-12.8c-3.8-4.6-5.6-8.4-7.2-11.5l-0.6-1.1c-3.4-6.6-8.8-13.7-9.1-14.2
		c-6.5-8-11.7-12.6-18.5-16.8h-10.1c10.6,5.5,16.9,9.9,25.1,20.1c0.1,0,5.6,7.1,8.7,13.5l0.6,1c1.6,3,3.7,7.1,7.6,12.2
		c2.5,3.4,8.4,8.8,13.3,13.3c2.7,2.4,7.6,6.9,12.6,16.4c3.2,6,6.3,12.8,6.9,21.5c0.6,9,0.6,16.4,0.6,16.5s-0.1,23.3,6.7,49.8
		c0.1,0.6,3.2,11.9,10.1,22.7c1.3,2.1,2.7,4,4.1,6v-8.3C1919.9,184.4,1919.7,184.2,1919.6,184z"/>
	<path class="st1" d="M1521.3,0c-0.1,0-0.1,0.1-0.1,0.1c-9.3,5.3-17.8,9.5-31.1,13.7c-13,4.1-31,6.6-31.3,6.6l-17.2,2.7
		c-8.4,1.4-14.7,2.4-19.9,3.9c-8.8,2.5-12.6,4.3-19.5,7.4l-1.3,0.6c-7.8,3.7-16.3,7.6-24.3,11.9c-5.5,2.9-15.6,9-22.3,15.6
		c-6.4,6.2-10.7,12.9-13.7,18.1l-1,1.5c-2.7,4.6-6.3,10.9-10.1,14.6c-3.6,3.5-7.4,7.4-9.7,12.3c-3.2,6.9-3.5,9.8-4.1,14.4
		c-0.1,1.3-0.3,2.5-0.6,4.1c-0.8,5.9-3.1,11.3-5,15.6c-4.2,9.4-10.1,16.7-10.2,16.8c-13.5,18.9-16.5,40.6-16.7,41.6
		c-1.4,10.9-1.7,18.5-0.8,24.5c2.2,14.9,7.4,21.5,11.8,26.9c0.4,0.6,0.9,1.1,1.3,1.7c2,2.7,4.5,5.6,7,8.4c3.1,3.5,6.2,7.1,8.4,10.2
		c8.3,11.5,12.2,20.3,12.2,20.5c2.2,4.9,3.4,10,3.1,14.3c-0.3,4.1-3.5,11.5-4.8,14.2l-6.3,15c-2.1,4.3-4.2,9.4-6.7,15.6
		c-4.2,10.4-5.6,18.9-5.6,19.3v0.1c-0.9,11.2,1.8,23.8,8,37.4c6.9,15.4,15.6,27.3,15.8,27.8c3.6,5.5,7.8,9.8,11.1,13.2
		c7.2,7.3,11.9,9.4,15.8,11.1c0.6,0.3,1.3,0.6,1.8,0.8c1.4,0.7,3.5,1.5,5.6,2.4c4.2,1.7,9.5,3.9,12.8,5.7c10.4,5.8,14.9,8.5,20.6,13
		c3.6,2.8,6.9,5.5,10.1,8.1c2.2,1.8,4.4,3.5,6.5,5.2l2.5,2c0.4,0.3,0.8,0.7,1.3,1h6.5c-1.8-1.4-3.5-2.8-5.2-4.1l-2.5-2
		c-2-1.7-4.1-3.4-6.3-5.2c-3.2-2.7-6.6-5.5-10.2-8.3c-6-4.5-10.5-7.4-21-13.3c-3.5-2-8.7-4.2-13.2-6c-2.1-1-4.1-1.7-5.5-2.4
		c-0.7-0.3-1.3-0.6-2-0.8c-3.8-1.5-8-3.4-14.4-10.1c-3.1-3.2-7.2-7.3-10.7-12.6c-0.1-0.1-8.7-12.2-15.4-27.1
		c-5.9-12.9-8.4-24.8-7.7-35.3c0.1-0.8,1.5-9,5.3-18.5c2.4-6,4.5-11.1,6.6-15.4l6.3-15c0.3-0.4,4.8-10,5.2-15.6
		c0.4-5-0.8-10.8-3.4-16.4c-0.1-0.4-4.1-9.3-12.6-21.2c-2.4-3.4-5.6-7-8.7-10.7c-2.4-2.8-4.9-5.7-6.9-8.3c-0.6-0.6-1-1.1-1.4-1.7
		c-4.2-5.2-9-11.2-10.9-25c-0.8-5.8-0.6-12.9,0.8-23.4c0-0.1,3.1-21.7,15.8-39.7c0.1-0.3,6.2-7.7,10.7-17.5
		c2.1-4.5,4.5-10.4,5.5-16.7c0.3-1.5,0.4-2.8,0.6-4.1c0.4-4.3,0.7-7,3.6-13.2c2-4.2,5.3-7.9,8.7-11.1c4.2-3.9,8.1-10.5,10.9-15.4
		l1-1.5c2.9-4.9,7-11.4,13-17.2c4.6-4.5,12.3-9.9,21.3-14.8c7.7-4.3,16.1-8.3,23.8-11.8l1.3-0.6c6.7-2.9,10.4-4.6,18.9-7.1
		c4.9-1.4,11.1-2.5,19.4-3.8l17.1-2.7c0.8-0.1,18.7-2.5,32-6.7c13.7-4.3,22.4-8.6,32-14c0,0,2.4-1.3,6.7-3.9H1521.3z M1919.9,58.7
		c-3.4-9.1-8.7-13.6-13.3-17.4l-1-0.7c-3.7-2.9-7.7-8.1-10.2-12.6c-3.8-6.9-6-13.6-6-13.6v-0.1c-2.2-5.4-4.6-10.1-7.1-14.2h-5.3
		c2.9,4.5,5.7,9.7,8.1,15.8c0.3,0.8,2.5,7.4,6.3,14.3c2.8,5,7.1,10.4,11.2,13.7l1,0.8c4.5,3.8,9,7.6,12.1,15.7
		c1.8,4.8,3.3,9.2,4.5,13.2V59C1920,58.9,1919.9,58.8,1919.9,58.7z"/>
	<path class="st1" d="M1481.7,0c-5.4,1.3-10.5,2.3-15.2,3c-8.3,1.3-19.5,3.4-29.9,5.5c-30.7,6.2-43.9,10.7-44.3,10.8
		c-9.2,2.8-14.4,4.6-22.3,8.6c-11.6,5.7-22.9,13.7-34.5,24.5c-6.7,6.3-9.7,10.1-11.9,12.9c-0.4,0.7-1,1.3-1.4,1.8l-1.8,2.2
		c-2,2.4-3.6,4.5-5.3,6.3c-2.7,2.8-5.2,4.9-7,6.4c-0.4,0.3-0.8,0.7-1.3,1c-3.2,2.8-8.3,7.1-8.3,7.1c-10.8,10.1-11.5,18.8-11.8,23.4
		c0,0.6-0.1,1-0.1,1.4c-0.1,0.8-0.1,1.8-0.3,2.9c-0.3,3.8-0.8,9.1-1.5,12.5c-1,4.3-4.2,10.9-4.9,12.2l-10.1,19.1
		c-15.4,28.3-15.8,59.7-15.8,61c-0.3,10.4,1.8,19.9,6,28.6c3.4,6.7,5.2,8.8,8.8,12.9l1,1.1c2.1,2.4,5,5.3,7.7,7.8l5.8,5.8
		c3.1,3.1,6.7,6.9,8.7,9.7c5.8,8,6,13.3,6.2,15.3c0.1,3.4-0.8,8.8-2,12.6c-2.1,7-4.8,12-6.3,14.9l-0.6,1c-1.3,2.5-7.2,12.6-7.3,12.8
		l-7.4,14.3c-2,3.9-4.2,8.1-5.3,11.5c-1.7,4.9-2.7,10-2.9,15c-0.6,10.4,2,17.4,3.4,21.2l0.4,1.1c1.4,3.9,2.1,6.3,5,13.5
		c2.4,5.9,4.5,10.6,6.3,14.3c6.4,12.8,17,24.4,29.7,32.8c9.1,6,15.3,9.4,22,12.8c3.2,1.5,7.4,3.4,11.9,5.2
		c4.9,2.1,10.1,4.2,14.2,6.3c4.8,2.4,9.3,4.8,13.2,7h7.7c-5.3-3.1-11.9-6.9-19.5-10.7c-4.2-2.2-9.4-4.3-14.4-6.4
		c-4.3-2-8.6-3.6-11.6-5.2c-6.4-3.4-12.6-6.7-21.6-12.6c-12.2-8-22.3-19.1-28.3-31.1c-1.8-3.5-3.9-8.1-6.2-13.9
		c-2.8-7.1-3.6-9.5-5-13.3l-0.4-1.1c-1.3-3.8-3.5-10-3.1-19.5c0.1-4.6,1.1-9.4,2.7-13.9c1.1-3.1,3.2-7.1,5.2-10.9l7.4-14.3
		c0.1-0.4,5.9-10.2,7.3-12.9l0.4-0.8c1.5-2.9,4.5-8.3,6.7-15.7c1.3-4.2,2.4-10.1,2.1-14.2c-0.1-2.4-0.6-8.5-7-17.5
		c-2.1-3-5.9-6.9-9-10.1l-1.1-1.1c-1.3-1.3-2.8-2.9-4.6-4.6c-2.5-2.5-5.5-5.3-7.4-7.6l-1-1.1c-3.5-3.9-5.2-5.8-8.1-11.9
		c-3.9-8-5.9-17-5.6-26.6c0-0.4,0.4-31.7,15.4-59.1l9.5-18.1c0-0.3,0.1-0.4,0.3-0.7c0.4-0.7,1.1-2.1,2.2-4.6
		c1.7-3.6,2.7-6.6,3.2-8.8c0.8-3.6,1.3-8.8,1.7-13c0.1-1.1,0.1-2.1,0.3-2.9c0-0.6,0.1-1,0.1-1.5c0.3-4.3,0.8-11.6,10.4-20.5
		c0,0,5-4.3,8.3-7.2c0.3-0.3,0.7-0.6,1.1-1c2-1.7,4.5-3.8,7.4-6.9c1.8-2,3.6-4.1,5.6-6.5l1.8-2.1c0.6-0.7,1-1.3,1.5-2
		c2.1-2.7,4.9-6.3,11.5-12.5c11.4-10.5,22.3-18.2,33.5-23.8c7.6-3.8,12.6-5.6,21.7-8.4c0.1,0,13.5-4.5,43.9-10.7
		c10.4-2.1,21.4-4.1,29.7-5.5c8.4-1.4,18.1-3.2,28.5-7.1H1481.7z M1918.5,0c0.5,0.9,1,1.8,1.5,2.7V0H1918.5z"/>
	<path class="st1" d="M1391.3,0c-23.7,6.6-40.2,17.6-47.3,22.4l-0.8,0.6c-7.3,4.9-17.7,12.3-17.8,12.5c-14.2,10.1-25.2,19.9-25.4,20
		l-12.2,10.8c-15.4,13.6-21.2,23-21.4,23.4l-0.1,0.1c-3.9,7.6-3.6,18.1-3.6,19.2c-0.4,7.3-1.7,11.1-3.6,16.3c-3.2,8.6-7.7,15-7.7,15
		l-0.1,0.1c-9.3,16-12.9,25.5-13,25.8c-7.9,18.4-10.5,35.3-11.5,46.3c-0.4,6-0.6,8.7-0.6,14.3c0,7.3,1.3,15.7,3,21.2
		c1.3,3.9,2.9,7.8,4.9,11.6c4.1,7.6,7,12.3,10.5,17.1c3.1,4.2,8.3,11.3,8.3,11.3l8.1,10.5c6.9,8.4,7.9,15.1,7.9,15.3
		c0.7,3.8,0.1,8.1-1.7,12c-2.4,5.3-4.6,8.7-6.6,11.8c-0.6,1-1.1,1.8-1.7,2.7l-0.6,0.8c-2.7,4.4-6.7,10.8-9.7,16.4
		c-7,12.9-10.5,21.7-10.8,22.3c-0.3,0.6-3.1,7.2-3.9,12.3c-1.4,8.5-0.6,18.8,2.2,27.3c2.8,8.4,5.9,15.6,5.9,15.7
		c3.1,7.3,6,13.3,8.7,18.2c4.1,7.4,6.7,11.5,9.8,16.1c3.1,4.5,9.8,11.4,16.5,15.8c12.4,8.3,27,12.6,34.2,14.6h16.3
		c-3.9-1-6.9-1.8-11.4-3.1l-2.5-0.7c-6-1.5-21.7-5.8-35-14.6c-6.2-4.2-12.5-10.7-15.3-14.7c-3.1-4.5-5.6-8.5-9.7-15.8
		c-2.5-4.6-5.5-10.7-8.4-17.8c0-0.1-3.1-7.3-5.8-15.4c-2.7-8-3.4-17.4-2.1-25.4c0.4-2.4,1.3-5.2,2.1-7.5c0.8-2.2,1.5-3.9,1.5-3.9
		c0-0.1,3.6-9,10.5-21.9c2.9-5.5,6.9-11.9,9.5-16.1l0.6-0.8c0.6-0.8,1.1-1.7,1.7-2.5c2-3.1,4.3-6.7,6.9-12.3
		c2.1-4.6,2.9-9.8,2.1-14.4c0-0.3-1-7.8-8.7-17.2l-8-10.4c0,0-5-7-8.3-11.4c-3.5-4.6-6.2-9.1-10.2-16.5c-1.8-3.5-3.5-7.1-4.6-10.9
		c-1.5-5-2.7-12.9-2.7-19.9c0-5.3,0-8,0.6-13.9c1-10.8,3.6-27.2,11.2-45.1c0-0.1,3.8-9.5,12.8-25.2c0.6-0.8,4.8-7.2,8.1-15.8
		c2.1-5.5,3.6-9.8,3.9-17.7v-0.3c0-0.1-0.4-10.2,3.1-17.1c0.6-0.8,6.4-9.8,20.6-22.4l12.2-10.8c0.1,0,11.1-9.8,25.1-19.8
		c0-0.1,10.4-7.4,17.7-12.3l0.8-0.6c8.3-5.6,30.3-20.3,61.8-25.4c0,0,0.6-0.1,1.5-0.2H1391.3z"/>
	<path class="st2" d="M1649.7,181.2"/>
	<path class="st2" d="M1795.4,127.4"/>
</g>
</svg>
