<?xml version="1.0" encoding="utf-8"?>
<!-- Generator: Adobe Illustrator 27.0.1, SVG Export Plug-In . SVG Version: 6.00 Build 0)  -->
<svg version="1.1" id="Ebene_1" xmlns="http://www.w3.org/2000/svg" xmlns:xlink="http://www.w3.org/1999/xlink" x="0px" y="0px"
	 viewBox="0 0 607.4 557.6" style="enable-background:new 0 0 607.4 557.6;" xml:space="preserve">
<style type="text/css">
	.st0{fill:#FFFFFF;}
	.st1{fill:#FFFFFF;stroke:#000000;stroke-width:3;stroke-miterlimit:10;}
</style>
<g id="Ebene_1_00000013884266586787043630000010616085243695710653_">
</g>
<g id="Ebene_3">
</g>
<g id="Ebene_2_00000141420777490224409680000013471665665727360661_">
	<path class="st0" d="M294.5,326.4c-1.1,0-2.2,0-3.3-0.2c-0.2,0-7.1-0.3-13.1-6.1c-5.6-5.3-10.1-13.3-13.3-23.6l-0.1-0.4
		c-1.1-3.6-2.2-7-3-12.3c-0.2-1.2-3.8-22.5,17.7-29.9c0.2-0.1,6-2.2,15.5-1.3c5.3,0.5,18.3,2.6,25.9,11.1c0.2,0.3,6.8,7.2,9.5,17.6
		c2.2,8.2,1.1,20.2-2.5,27.5c-0.2,0.5-6.1,12.9-21.9,16.2C302.9,325.6,298.9,326.4,294.5,326.4z M290.1,255.4
		c-6.2,0-9.8,1.3-9.8,1.3c-19.5,6.8-15.9,25.8-15.8,26.6l0,0.1c0.8,5.1,1.8,8.4,2.9,11.9l0.1,0.4c3.1,9.8,7.3,17.3,12.5,22.3
		c5.2,5,11.2,5.2,11.2,5.2c5.1,0.5,10.1-0.4,13.8-1.1c14.3-3,19.8-14.5,19.8-14.6c3.3-6.6,4.3-18,2.3-25.4
		c-2.6-9.6-8.8-16.2-8.8-16.3c-7.1-8-20.2-9.8-24-10.1C293,255.5,291.5,255.4,290.1,255.4z"/>
	<path class="st0" d="M298.5,346.1c-3.3,0-6.6-0.3-9.8-0.8c-0.2,0-5.7-1-11-3.5c-4.6-2.2-8.9-5.4-12.9-9.4
		c-0.4-0.3-9.6-9.4-13.2-25.4c0-0.1-2.7-10.5-5.6-20.8c-0.1-0.4-3.3-11.1-1-19.8c1.5-5.5,4.1-11,7.1-14.9c0.2-0.4,7.1-10,23.8-17
		c0.6-0.3,13.1-5.5,27.4-4.4c7.5,0.6,13.6,2.6,19.2,6.4c0.4,0.3,10.5,7.3,17.6,20.2c3.9,7,8.2,15.5,9.9,26.9
		c0.1,0.5,2.4,13.2-2.1,27.2c-2.4,7.5-7.3,15-13.4,20.5c-0.2,0.2-7.3,7.5-18.9,11.8C310.6,345.2,304.6,346.1,298.5,346.1z
		 M299.3,232.9c-12,0-22.1,4.2-22.2,4.3l0,0c-15.8,6.6-22.4,15.9-22.5,16c-2.8,3.6-5.2,8.8-6.6,13.9c-2.1,7.9,0.9,18.1,0.9,18.2
		c2.9,10.4,5.6,20.9,5.6,21c3.4,15.1,12.3,23.9,12.4,24c3.7,3.8,7.8,6.8,12.1,8.9c4.9,2.3,10.2,3.2,10.2,3.2
		c8.8,1.5,18.1,0.9,25.4-1.9c11-4.1,17.8-11.1,17.9-11.1c5.8-5.3,10.4-12.3,12.6-19.3c4.3-13.2,2-25.7,2-25.8
		c-1.7-11-5.6-18.9-9.6-26c-6.8-12.3-16.6-19.1-16.7-19.2c-5.3-3.6-10.8-5.4-17.8-5.9C301.8,233,300.6,232.9,299.3,232.9z"/>
	<path class="st0" d="M290.4,371.2c-10.3,0-19-1.5-25.8-4.5c-0.6-0.2-14.7-6.2-25-18.8c-2.5-3.1-4.8-6.7-7.8-12.1
		c-0.1-0.1-1.6-2.9-3.1-6.5c-0.7-1.6-1.2-3.4-1.7-5.7c-0.5-2.4-0.7-5.5-0.7-9.4c0-0.1,0.2-4.4-0.9-9.8c-0.4-2.4-1-4.7-1.6-7.2
		c-0.2-0.9-0.4-1.9-0.7-2.8c0-0.2-0.8-3.8-1.3-9.5c-0.6-6.9-0.6-13.7,0-20c0.7-7.5,2.4-14.3,4.9-20.1c0.1-0.1,1.7-4.4,6.5-11
		c1.9-2.6,4.8-6.4,8.2-9.5c0.2-0.2,5-4.5,10.3-7.1c0.1,0,4.7-2.3,8.5-4.4c1.8-1,3.7-2.2,5.8-3.6c1.1-0.7,2.1-1.4,3.2-2.1
		c0.5-0.4,13.9-9.8,28.2-9.3c0.1,0,5.7,0,12.8,2c4.8,1.4,9.9,3,14.6,5.8l0,0c0,0,4.6,2.5,9.9,5.6c5.5,3.2,9.7,5.9,12.6,8
		c0.3,0.2,4.9,3.5,9.6,8.8c2.4,2.8,5.3,6.5,7.8,9.9c3.1,4.1,6,8.3,8.4,12.5c3.2,5.6,5.9,11.2,7.8,16.8c2.3,6.6,3.7,13.3,4.2,19.9
		c0.1,0.5,1.5,14.6-3.4,30.7c-3.7,12.1-9.5,21.3-18.8,29.8c-0.1,0.1-4.4,4.2-11.7,8.3c-4.6,2.6-9.7,4.9-15.1,6.8
		c-6.8,2.4-15.7,4.4-19.4,5.1c-0.5,0.1-11.8,2.4-18.5,2.8C295.5,371.1,292.9,371.2,290.4,371.2z M296.4,201c-13,0-25.5,8.8-25.6,8.9
		c-1.1,0.7-2.2,1.4-3.2,2.1c-2,1.3-4.1,2.7-6,3.7c-3.9,2.1-8.6,4.4-8.6,4.4c-4.9,2.4-9.6,6.6-9.6,6.7c-3.2,2.9-5.9,6.5-7.7,9
		c-4.5,6.3-6.2,10.3-6.2,10.4c-2.4,5.6-4,12-4.7,19.3c-0.6,6.1-0.6,12.7,0,19.4c0.5,5.5,1.3,9,1.3,9.1c0.2,1,0.4,1.9,0.7,2.8
		c0.6,2.5,1.2,4.9,1.6,7.3c1.1,5.7,0.9,10.2,0.9,10.4c0,3.6,0.2,6.5,0.7,8.7c0.4,2,0.9,3.8,1.5,5.1c1.5,3.5,3,6.2,3,6.2
		c2.9,5.2,5.1,8.7,7.5,11.6c9.8,12,23.7,17.9,23.9,17.9c8,3.5,18.8,4.8,32.2,4c6.5-0.4,18-2.8,18.1-2.8c4.3-0.8,12.8-2.8,19-5
		c5.2-1.8,10.1-4.1,14.6-6.6c7-4,11.1-7.9,11.1-7.9c8.9-8.1,14.5-16.9,18-28.4c4.7-15.5,3.3-29.5,3.2-29.6
		c-0.5-6.4-1.8-12.8-4.1-19.2c-1.9-5.4-4.4-10.9-7.6-16.2c-2.4-4.1-5.1-8.2-8.2-12.2c-2.5-3.3-5.3-7-7.7-9.7c-4.5-5.1-9-8.3-9.1-8.4
		l0,0c-2.8-2.1-7-4.7-12.4-7.9c-5.2-3.1-9.8-5.6-9.8-5.6c-4.5-2.6-9.4-4.2-14-5.5c-6.6-1.9-11.9-1.9-12-1.9c0,0,0,0,0,0
		C297,201,296.7,201,296.4,201z"/>
	<path class="st0" d="M286.6,405.7c-1.9,0-3.9-0.1-5.8-0.3c-3.7-0.5-7.4-1.1-12.9-3.3l-26-10.2c-0.1,0-5.2-2.3-11.2-5.5
		c-4.5-2.4-8.3-4.8-11.3-7.1c-0.2-0.1-5.2-3.9-7.1-9.6c0,0-1.5-4.1-2.6-6.4c-0.9-1.9-1.7-3.2-4-6.1c-0.1-0.1-4.6-5.2-7.2-11.8
		c-1.4-3.6-2.4-7.3-2.7-10.8c-0.4-3.5-0.4-6.4,0.5-11.1c0-0.1,1.4-7.1,2-12.1c0.4-4,0.2-9.1-0.7-14.6c0-0.1-3.7-18.6-3.8-37.3
		c0-8.2,0.6-15.3,1.9-21.1c0-0.2,1.3-6.6,3.4-11.6c1.8-4.2,3.7-8.4,3.7-8.4c0.1-0.2,2.3-6,4.8-9.6c0-0.1,0.9-1.3,1.9-2.5
		c4.6-5.7,13.6-10.6,15.8-11.6c2-0.9,4.3-1.7,7.1-2.7c4.2-1.5,9.4-3.3,16.9-6.7c2.4-1.2,5-2.4,8.1-4.2c2.7-1.6,4.1-2.5,6.5-4.1
		l0.4-0.2c0.6-0.4,7.8-5.6,18.1-7.7c6.4-1.3,12.9-2,19.7-2.1c0,0,0,0,0,0c0.6,0,10.1,0.1,20.5,3.6c4.5,1.6,9.7,4,14.8,6.3
		c1.1,0.5,2.3,1,3.4,1.6c7.6,3.5,16.1,9.1,18.5,10.8l0.1,0.1c2.9,1.9,10,6.8,13.5,9.7c0.8,0.7,1.5,1.3,2.3,1.9
		c3.1,2.6,5.5,4.6,8.7,7.9c1.9,2,4.1,4.4,6.5,7.2c0.4,0.4,0.7,0.8,1,1.2c1.7,1.9,3.1,3.6,5.9,8.1c1.8,2.8,3.2,5.8,4.4,9
		c0,0.1,3.2,9,7.2,18c2.2,4.9,4.3,9.5,6.5,14c0.1,0.1,1.7,3.3,3.2,7.3c1.1,2.8,2.3,7,2.7,9.6c1.2,7.3,1.6,14.1-0.7,23.5l-5.1,20.4
		c-0.1,0.4-2.3,9.7-6.8,20.4c-3.1,7.4-7.3,15.8-15.1,22.5l-9.9,8.1c-2.3,1.9-4.4,3.8-6.6,5.7c-1.4,1.2-2.8,2.5-4.3,3.8
		c-0.4,0.3-0.7,0.6-1.1,1c-5.3,4.6-11.2,9.8-29.3,11c-0.1,0-9.5,0.6-23.1,2.2c-7.2,0.8-15.7,2.2-23.8,3.6
		C295.4,405.1,291.3,405.7,286.6,405.7z M302.1,169.8c-6.6,0.1-12.9,0.8-19.2,2.1c-9.8,2-16.9,7.2-17,7.2l-0.4,0.3
		c-2.4,1.6-3.9,2.6-6.7,4.2c-3.2,1.9-5.8,3.1-8.3,4.4c-7.7,3.4-13.2,5.4-17.2,6.8c-2.7,1-4.9,1.7-6.8,2.6
		c-1.9,0.9-10.5,5.6-14.7,10.8c-0.9,1.1-1.7,2.3-1.7,2.3c-2.2,3.4-4.5,9.1-4.5,9.1c0,0.1-1.9,4.3-3.7,8.5c-2,4.7-3.3,11-3.3,11
		c-1.3,5.6-1.9,12.5-1.8,20.5c0.1,18.4,3.7,36.6,3.7,36.8c1,5.8,1.2,11.1,0.8,15.4c-0.6,5.2-2,12.1-2,12.4
		c-0.9,4.3-0.8,6.9-0.5,10.1c0.4,3.3,1.2,6.6,2.6,10c2.4,6,6.7,10.9,6.7,10.9c2.6,3.2,3.5,4.7,4.4,6.8c1.2,2.5,2.6,6.5,2.7,6.7
		c1.7,4.9,6.1,8.2,6.1,8.2c2.9,2.2,6.5,4.5,10.9,6.8c5.8,3.2,10.9,5.3,10.9,5.4l25.9,10.2c5.2,2.1,8.7,2.7,12.2,3.1
		c6.2,0.8,13.8-0.2,13.9-0.2c8.1-1.4,16.6-2.7,23.9-3.6c13.7-1.6,23.2-2.2,23.2-2.2c17.1-1.1,22.4-5.7,27.5-10.2
		c0.4-0.3,0.8-0.7,1.1-1c1.5-1.3,2.9-2.5,4.3-3.7c2.2-2,4.3-3.8,6.7-5.8l9.8-8.1c7.3-6.3,11.3-14.3,14.3-21.3
		c4.4-10.5,6.6-19.9,6.6-20l5.1-20.5c2.2-8.8,1.8-15.3,0.7-22.3c-0.4-2.4-1.5-6.4-2.6-9.1c-1.5-3.8-3.1-7-3.1-7
		c-2.2-4.5-4.4-9.1-6.6-14.1c-4.1-9.2-7.3-18.2-7.3-18.2c-1.1-2.9-2.4-5.8-4.1-8.4c-2.7-4.3-4.1-5.9-5.6-7.7
		c-0.3-0.4-0.7-0.8-1.1-1.2c-2.3-2.8-4.5-5.2-6.4-7.1c-3-3.2-5.3-5.1-8.4-7.7c-0.7-0.6-1.5-1.2-2.3-1.9c-3.5-2.9-11-8-13.2-9.5
		l-0.1-0.1c-6.3-4.3-13.1-8.3-18.1-10.5c-1.1-0.5-2.3-1-3.4-1.6c-5-2.3-10.1-4.7-14.5-6.2C311.7,169.8,302.2,169.8,302.1,169.8z"/>
	<path class="st0" d="M284.5,429.3c-2.8,0-6.1-0.1-9.8-0.5c-7.7-0.8-14.6-2.4-21.2-5.1c-0.1,0-8.4-3.5-14.1-5.8
		c-2.2-0.9-3.6-1.4-6.1-2.1c-1.2-0.3-2.8-0.7-4.2-1c-1.9-0.4-3.8-0.8-5.3-1.3c-0.2-0.1-6.8-2-12-5.3c-2.8-1.8-6.2-4.2-9.4-8.1
		l-6.4-8.6c-1.2-1.6-2.1-2.8-2.9-3.8c-1.2-1.6-2.1-2.7-3.1-4.2l-0.7-1c-1.4-2.2-3.2-4.8-5.2-7.8c-1.5-2.4-2.8-4-4.8-6.7l-0.4-0.5
		c-0.1-0.1-2.6-3.4-4.3-7c-1.3-3-2.2-5.7-2.7-8.4c-0.9-4.8-1.7-10.2-1.8-16.9c0-1.9,0.1-7.1,1.6-12.5c0.1-0.4,0.2-0.9,0.4-1.4
		c1-3.3,2.6-8.8,1.5-17c-0.5-4-1.3-8.7-3.5-14.1c-0.1-0.2-2-4.7-2.2-10.2l-0.1-4.2c-0.1-3.8-0.3-8.4-0.4-11.4
		c-0.2-6-0.4-10.9,0.5-20.1c0.4-3.8,1-7.8,2-11.9c1.1-4.6,2.5-9.3,4.4-14.7c0.1-0.4,3.3-9.7,7.4-17.5c2.9-5.5,9.6-15.5,21.2-20.3
		l14.1-5.4c0.1,0,9-3.5,14.1-5.6l0,0c3.9-1.6,6.3-2.6,10.8-4.5l5.6-2.4c5.9-2.5,12-5.8,19.6-10.7c0.3-0.2,7.6-5,16.4-7.5
		c7.6-2.1,18.9-4.2,29.7-2c0.3,0,7.1,1.3,17.3,4.5c9.4,2.9,16.6,5.9,20.1,7.4c5.1,2.2,11,4.9,16.7,7.9c3.9,2.1,7.3,3.9,11.5,6.5
		c6.2,3.8,8.4,5.9,9.4,6.8c3.3,3.1,5.9,6.9,6.9,8.3c1.8,2.6,4.9,5.8,6.5,7.5l0.5,0.5c1.8,1.8,4.2,4.1,7,6.7
		c4.2,3.9,6.7,8.8,7.5,10.4c1.5,3,2.8,6.6,4.5,12.4c0,0,1.8,6.2,4.8,14.2c2.4,6.5,6.3,16.3,11.7,25.1c0.2,0.3,4.5,7.1,6.2,12.9
		c2.2,7.3,3.5,14.2,3.8,21.1c0.3,6.7-0.7,13.5-2.4,21.6c0,0.1-1.4,6.9-3.1,13.9c-1.8,7.3-2.7,10.4-4,14.1c-0.1,0.4-0.3,0.9-0.5,1.3
		c-1.3,3.7-3.2,9.4-7.7,17.9c-2.7,5.1-8.3,14.8-16.2,22.6c-0.1,0.1-14,15.1-26.6,25.6c-5.2,4.4-9.1,7.4-15.2,9.9
		c-0.2,0.1-5.7,2.4-15.1,3.9c-4.5,0.7-9.6,1.2-17.1,1.5c-0.3,0-23.5,0.7-47.3,2.6C292.2,429,289.2,429.3,284.5,429.3z M303.6,143.8
		c-7.2,0-14,1.4-19.1,2.8c-8.3,2.3-15.5,7.1-15.5,7.1c-7.8,5-13.9,8.4-20,10.9l-5.6,2.4c-4.5,1.9-6.9,2.9-10.8,4.5l0,0
		c-5.2,2.1-14.1,5.5-14.2,5.6l-14,5.4c-10.7,4.4-16.9,13.8-19.7,19c-4,7.6-7.2,17-7.3,17.1c-1.9,5.3-3.3,9.9-4.4,14.4
		c-0.9,3.9-1.6,7.8-1.9,11.5c-0.8,8.9-0.7,13.8-0.5,19.6c0.1,3,0.3,7.6,0.4,11.4l0.1,4.2c0.2,4.9,2,9.1,2,9.2
		c2.3,5.7,3.2,10.7,3.7,14.9c1.1,8.9-0.6,14.8-1.6,18.3c-0.2,0.5-0.3,1-0.4,1.4c-1.4,5.1-1.5,9.8-1.5,11.7
		c0.1,6.5,0.9,11.7,1.7,16.4c0.4,2.4,1.2,5,2.4,7.7c1.5,3.3,3.9,6.4,3.9,6.4l0.4,0.6c2,2.6,3.3,4.4,4.9,6.9c1.9,3,3.7,5.6,5.1,7.8
		l0.7,1c0.9,1.4,1.8,2.5,3,4c0.8,1,1.7,2.2,2.9,3.8l6.4,8.5c2.9,3.6,5.9,5.7,8.7,7.5c4.9,3.1,11.2,5,11.2,5c1.4,0.4,3.3,0.9,5.1,1.3
		c1.5,0.3,3.1,0.7,4.4,1.1c2.6,0.7,4.1,1.3,6.4,2.2c5.8,2.3,14.1,5.8,14.2,5.8c6.3,2.5,12.9,4.1,20.3,4.9c9.6,1,17,0.1,17.1,0.1
		c23.9-1.9,47.2-2.6,47.4-2.6c7.4-0.3,12.4-0.7,16.8-1.5c9-1.5,14.4-3.7,14.5-3.7c5.8-2.3,9.3-5.1,14.5-9.4
		c12.5-10.4,26.2-25.3,26.3-25.4c5.6-5.6,11.3-13.6,15.7-22c4.4-8.4,6.3-13.9,7.6-17.5c0.2-0.5,0.3-0.9,0.5-1.3
		c1.3-3.6,2.1-6.6,3.9-13.8c1.7-6.8,3.1-13.7,3.1-13.7c1.7-8.2,2.6-14.5,2.3-20.9c-0.3-6.6-1.5-13.3-3.7-20.3
		c-1.7-5.4-5.9-12.2-5.9-12.2c-5.5-9-9.5-18.9-11.9-25.6c-3-8.1-4.8-14.4-4.9-14.4c-1.6-5.6-2.8-9.1-4.2-11.9
		c-0.8-1.5-3.1-6.1-6.8-9.6c-2.9-2.7-5.3-5-7.1-6.9l-0.4-0.5c-1.7-1.8-4.9-5.1-6.8-7.9c-0.9-1.4-3.4-5-6.5-7.9
		c-0.9-0.8-2.9-2.8-8.9-6.5c-4.2-2.6-7.5-4.4-11.4-6.5c-5.6-3-11.5-5.6-16.5-7.8c-3.4-1.5-10.5-4.4-19.8-7.3
		c-10-3.1-16.9-4.4-16.9-4.4C309.8,144,306.7,143.8,303.6,143.8z"/>
	<path class="st0" d="M281.6,459.6c-3,0-6.6-0.4-10.9-1.3c-0.2,0-6.7-1.3-13.1-4.1l-0.9-0.4c-3-1.3-6.4-2.8-10.1-4.8
		c0,0-6.4-3.2-14-5.9c-5.5-2-9.9-3.2-16.1-3.7c-0.3,0-8-0.6-13.9-4c-0.3-0.2-0.6-0.4-1-0.5c-1.5-0.8-3.1-1.7-5-3.2
		c-2.3-1.8-4.1-3.5-6.4-5.9c-1.4-1.5-2.7-3.1-4.4-5.4c-1.3-1.6-2.8-3.6-4.9-6.2c-4.9-6.1-12-13.7-20-21.5
		c-0.8-0.8-19.1-18.8-21.5-34.5c-0.2-1.1-2.9-14.2,2.4-34.1l1.3-5.1c0-0.1,0.9-3.6,1.1-7.2c0.1-2.6-0.1-5.3-0.6-7.8
		c-0.8-4.2-2.5-8.6-5.3-15c-0.1-0.2-2.7-5.6-3.2-12.5c-0.3-3.4-0.5-7.4-0.3-12.4l0.1-1.4c0.2-5.5,0.5-11.7,1.4-19.2
		c0-0.4,1-9.7,3.9-19.4c1.3-4.5,3.2-9.8,6.6-14.6l0.1-0.1c0,0,3.8-4.7,5.7-9.4c1.2-2.9,1.9-5.4,2.5-10.4c0-0.3,0.8-6.7,3.4-10.9
		c2.1-3.5,4.9-6.1,8.5-8.2c2.5-1.4,6.1-2.7,11-3.8l5.5-1.3c0,0,5.5-1.4,8.7-2.5c2.8-1,5.9-2.5,9.6-4.3l19.7-9.4l19.1-8.7
		c0.1,0,9.1-4.4,12.9-6.7c2.6-1.6,11.2-6.8,13.5-7.9l0.6-0.3c2.1-1.1,6.6-3.4,15.4-5.7c6.6-1.8,13.1-2.7,19.5-2.9
		c6-0.1,11.8,0.4,17.4,1.7c0.2,0,6.1,1,18.6,5c6.5,2.1,11.9,4.2,16.6,6c1.2,0.5,2.4,0.9,3.5,1.3c4,1.5,4.9,1.9,8.1,3.3
		c1.1,0.5,2.5,1.1,4.5,1.9c0.9,0.4,1.9,0.8,2.8,1.2c3.3,1.4,6.5,2.8,10.4,3.9c0.4,0.1,9.4,2.6,15.3,6c2.4,1.4,5.1,3.5,7.1,5.5
		c1.5,1.6,2.7,3.1,4.4,5.9c0.2,0.4,0.5,0.8,0.7,1.2c0.9,1.5,1.7,3,4.2,5.7c2.4,2.6,4.3,4.3,5.9,5.8c0.4,0.4,0.9,0.8,1.2,1.1
		c2.4,2.3,4.8,4.2,8,6.6c2,1.5,4,3.2,5.7,5.5c4.1,5.4,7.3,12.9,9.4,22.2c0.1,0.2,6.7,27.5,16.5,44.1c0,0,3.7,6.2,6.7,12
		c3,5.7,5.4,12.5,6.9,19.1c1.6,7.2,1.8,12.9,0.6,19.6c-0.1,0.4-6.7,31.2-8.5,39.1c-0.9,3.8-2.4,9.7-4.4,16c-0.4,1.4-0.9,3-1.4,4.6
		c-1.3,4.2-2.7,9-3.9,12l-0.3,0.7c-1.6,4-3,7.5-5.9,12.4c-1.6,2.6-3.5,5.1-5.3,7.4c-0.9,1.2-1.8,2.3-2.7,3.5
		c-2.5,3.5-4.3,6-9.5,13.6c-0.6,0.9-1.1,1.6-1.6,2.4c-1.6,2.4-3.1,4.7-5.9,8c-0.1,0.1-3.2,4-9.8,9.2c-9.1,7.3-16,11.1-19.2,12.8
		c-4.7,2.4-8.4,3.9-11.9,4.7c-1.9,0.5-4.5,1.1-7.3,1.5c-4.4,0.7-11.8,1.9-20.4,1.5c-0.1,0-12.7-0.6-21.5-0.8
		c-7.7-0.2-17.3-0.5-22.9,1c-3.7,1-6.7,1.9-11,3.3c-2.1,0.7-4.4,1.4-7.2,2.2l-1.4,0.4C290.9,458.4,287,459.6,281.6,459.6z
		 M149.2,211.2c-3.1,4.4-4.8,9.2-6.1,13.7c-2.8,9.4-3.8,18.8-3.8,18.9c-0.9,7.3-1.1,13.5-1.3,18.9l-0.1,1.4
		c-0.2,4.9,0.1,8.8,0.3,12.1c0.4,6.3,2.9,11.4,2.9,11.5c2.9,6.6,4.7,11.2,5.5,15.7c0.5,2.8,0.7,5.6,0.6,8.5c-0.1,4-1.1,7.7-1.2,7.9
		l-1.3,5.1c-5.2,19.6-2.4,32.7-2.3,32.8l0,0.1c2.2,14.7,20.5,32.7,20.7,32.8c8.1,7.9,15.2,15.6,20.2,21.8c2.1,2.6,3.6,4.6,4.9,6.2
		c1.7,2.2,3,3.8,4.2,5.2c2.2,2.3,3.9,3.9,6.1,5.6c1.7,1.4,3.1,2.1,4.6,3c0.3,0.2,0.6,0.4,1,0.5c5.3,3,12.6,3.6,12.6,3.6
		c6.6,0.6,11.2,1.8,16.9,3.9c7.8,2.8,14.1,5.9,14.4,6.1c3.6,1.9,7,3.4,9.9,4.7l0.9,0.4c6.1,2.7,12.4,3.9,12.5,3.9
		c11.3,2.5,16.6,0.9,22.7-1l1.4-0.4c2.8-0.9,5.1-1.6,7.2-2.2c4.3-1.3,7.4-2.3,11.1-3.3c5.5-1.5,14-1.4,23.7-1.1
		c8.8,0.2,21.4,0.8,21.5,0.9c8.3,0.4,15.2-0.7,19.8-1.5c2.7-0.4,5.2-1,7.1-1.5c3.2-0.8,6.8-2.2,11.2-4.5c5.4-2.7,12.2-7.3,18.7-12.4
		c6.3-5,9.3-8.8,9.3-8.8c2.7-3.3,4.1-5.4,5.7-7.8c0.5-0.8,1-1.6,1.6-2.4c5.2-7.6,7-10.2,9.5-13.7c0.9-1.2,1.8-2.4,2.8-3.6
		c1.8-2.3,3.6-4.6,5.1-7.1c2.8-4.7,4.1-8.1,5.6-12l0.3-0.7c1.2-3,2.6-7.7,3.8-11.8c0.5-1.7,1-3.3,1.4-4.7c2-6.3,3.4-12,4.3-15.8
		c1.9-7.8,8.5-38.7,8.5-39c1.1-6.2,1-11.6-0.6-18.4c-1.5-6.4-3.8-12.9-6.7-18.4c-3-5.7-6.6-11.8-6.6-11.8
		c-10-17.1-16.5-43.9-16.8-45c-2.5-11.1-6.2-17.6-8.8-21.1c-1.5-2-3.4-3.5-5.1-4.9c-3.3-2.4-5.7-4.4-8.3-6.8
		c-0.4-0.3-0.8-0.7-1.2-1.1c-1.5-1.4-3.5-3.3-6-5.9c-2.7-3-3.7-4.6-4.6-6.2c-0.2-0.4-0.4-0.7-0.7-1.1c-1.6-2.7-2.7-4-4-5.4
		c-1.8-1.8-4.3-3.8-6.5-5c-5.6-3.2-14.5-5.7-14.6-5.7c-4.1-1.1-7.5-2.6-10.8-4c-0.9-0.4-1.8-0.8-2.7-1.2c-1.9-0.8-3.3-1.4-4.5-1.9
		c-3.2-1.3-4.1-1.7-8.1-3.2c-1.1-0.4-2.3-0.9-3.5-1.3c-4.7-1.8-10-3.9-16.4-6c-12.3-3.9-18.2-4.9-18.2-4.9c-5.4-1.3-11-1.8-16.7-1.7
		c-6.1,0.1-12.5,1.1-18.8,2.8c-8.5,2.3-12.8,4.5-14.8,5.5l-0.6,0.3c-1.7,0.8-7.9,4.6-13.2,7.8c-3.9,2.4-12.8,6.7-13.1,6.9l-19.1,8.7
		l-19.7,9.4c-3.8,1.8-7,3.4-9.9,4.4c-3.4,1.2-8.8,2.6-9,2.6l-5.5,1.3c-4.6,1.1-7.9,2.2-10.2,3.5c-3.1,1.8-5.6,4.1-7.4,7.2
		c-2.3,3.7-3,9.7-3,9.7c-0.6,5.3-1.4,8-2.7,11.2C153.3,206,149.6,210.7,149.2,211.2z"/>
	<path class="st0" d="M279.7,490.7c-0.8,0-1.6,0-2.4-0.1c-3.4-0.4-6.3-1.3-10.2-3.1c-0.1-0.1-9.6-4.5-20.7-8.8l-0.6-0.2
		c-4.5-1.7-9.6-3.6-15.2-5.3c-0.2-0.1-15.9-5.3-30-7.6c-0.2,0-6.6-0.9-13.1-3.9c-3.9-1.8-8-4.2-11.5-9.7c-0.7-1.1-1.3-2-1.7-2.7
		c-1.5-2.4-2.2-3.6-6.4-8.3c-3.5-4-7.7-8.1-12.5-12.1c-1.1-0.9-2-1.7-2.8-2.4c-3-2.6-4.9-4.2-10.3-8.4c-3.7-2.9-8.2-5.5-11.9-7.5
		c-1.1-0.6-2.1-1.2-3-1.7c-3.7-2.2-6.6-4.1-10.9-7.9c-3.4-3-7-7.4-9.5-11.4l-0.4-0.7c-2.3-3.7-4.4-7.2-6.8-16.6
		c-2.2-8.7-2-17.4,0.6-25.7c0.1-0.2,1.7-5.3,5.5-12.6c3-5.8,6.5-12.3,4.4-24.5c0-0.1-0.9-5.6-4.6-14c-2-4.5-4.5-8.8-8.2-14.8
		c-0.5-0.6-4.3-6.3-5.3-14.1c-0.6-4.6-1-10.1,0.4-16.7c0-0.2,1-5,3.1-11.1c1.4-4,3-7.6,4.7-10.7c0.1-0.1,2.4-4,4.4-10.1
		c0.9-2.9,1.9-7.3,2.6-11.4c0.1-0.6,0.6-5.2,3.1-9.5c1.1-1.9,2.3-3.5,3.5-5c1.5-1.9,2.8-3.6,3.9-5.8c0.8-1.7,1.7-4.3,2.7-7.1
		c1-2.9,2-5.9,3.2-8.4c1.5-3.4,6.1-12,14.7-18.1c7.6-5.4,15-8.2,23.2-8.9l5.4-0.2c0.2,0,11.9,0.2,25.6-5c0.2-0.1,22.2-8.4,33.7-13.4
		l0,0c6.6-2.9,12.5-5.5,19.7-9.4c5.3-2.8,11.5-6.3,20.3-11.4c0.5-0.3,11.4-6.4,24.2-8.9c9.5-1.8,14-2,21.4-2.1
		c8.8-0.1,15.7,0.5,26.6,2.1c11.8,1.8,24.5,4.7,37.7,8.8l14.3,4.9c0.1,0,3.6,1.4,8.6,3c1.6,0.6,3.7,1.2,5.6,1.8
		c1.3,0.4,2.5,0.8,3.5,1.1l0.6,0.2c2.9,0.9,8.2,2.6,13,7.4c3,3,7.9,8.4,10.2,11.5c2.4,3.1,4.2,5.2,9.4,10.8
		c2.3,2.5,5.9,5.7,10.6,9.6c2.8,2.3,4.2,3.5,6.8,6.7c2.8,3.5,6.1,7.8,8.3,14.1c1.9,5.5,2.4,10.1,2.9,16c0,0.1,0.7,8.3,0.9,13.4
		c0.2,4.5,0.4,10.6,1.7,16.5c1.2,5.2,3.2,13,7.4,20c1.4,2.3,3,4.5,4.7,6.5c2.2,2.5,4.6,4.7,7,6.6c2.9,2.3,8.4,6.6,11.3,9.1l0.5,0.4
		c3.7,3,7.5,6.2,10.9,11.2c3.4,4.9,5,10.1,5,15.9c0,0.2,0,4.4-1.4,9.6c-0.8,3-2.1,7.1-3.2,10.3l-9.2,23.6
		c-0.1,0.3-9.2,21.8-17.6,48.8c0,0.1-1.1,3.7-2.4,7.4c-0.6,1.6-1.3,3.3-2,5c-0.3,0.7-0.6,1.4-0.9,2.2c-1.2,2.9-2.7,6.2-3.8,8.4
		c-1.5,3.2-2.9,5.8-5.1,8.9c-0.7,1-1.3,1.7-1.8,2.3c-0.9,1.1-1.7,2.1-3.1,4.1c-0.6,1-1.4,2.2-2.3,3.4c-1.1,1.6-2.3,3.4-3.5,5.3
		c-0.7,1.2-1.6,2.6-2.4,4.1c-2.6,4.5-5.8,10-9.7,14.3c-5.6,6.1-10.5,10.2-15.5,13l-0.4,0.2c-5.2,2.9-14.9,8.2-33.4,11.5
		c-0.4,0.1-11.8,2.5-28.4,1.9c-5.8-0.2-15.1-1.4-18.5-1.9c-6.7-1.1-11.3-1.4-18.2-1.5c-8.3,0-14.4,0.2-21.9,3.1
		c-5.2,2-11.7,5.8-15,7.9c-1.2,0.7-2.3,1.4-3.2,2c-2.4,1.5-4.3,2.7-6.7,3.9C288.3,489.4,284.2,490.7,279.7,490.7z M167.1,146.3
		l-5.2,0.2c-7.5,0.6-14.4,3.3-21.6,8.4c-8,5.7-12.2,13.7-13.7,16.9c-1.1,2.4-2.1,5.3-3,8.1c-1,2.9-1.9,5.6-2.8,7.4
		c-1.2,2.4-2.7,4.4-4.2,6.3c-1.1,1.5-2.3,3-3.3,4.7c-2.3,4-2.7,8.3-2.7,8.3l0,0.1c-0.7,4.3-1.7,8.8-2.7,11.9
		c-2.1,6.5-4.6,10.5-4.7,10.7c-1.6,2.9-3.1,6.4-4.4,10.2c-2.1,5.9-3,10.7-3,10.8c-1.3,6.1-0.9,11.3-0.4,15.7
		c0.9,7.3,4.8,12.7,4.8,12.7l0.1,0.1c3.7,6.1,6.3,10.5,8.4,15.2c3.9,8.8,4.8,14.5,4.8,14.8c2.2,13.2-1.6,20.5-4.7,26.4
		c-3.7,7.1-5.3,12.1-5.3,12.2c-2.4,7.8-2.6,15.9-0.5,24.1c2.2,9,4.3,12.3,6.4,15.8l0.4,0.7c2.3,3.7,5.8,7.9,8.9,10.7
		c4.2,3.7,6.8,5.4,10.4,7.6c0.8,0.5,1.8,1.1,2.9,1.7c3.7,2.1,8.3,4.7,12.2,7.8c5.4,4.3,7.3,5.8,10.3,8.5c0.8,0.7,1.7,1.5,2.8,2.4
		c4.8,4.1,9.1,8.3,12.8,12.4c4.4,5,5.1,6.2,6.7,8.7c0.5,0.7,1,1.6,1.7,2.7c3.1,4.8,6.8,7,10.3,8.6c6.1,2.8,12.2,3.7,12.3,3.7
		c14.5,2.3,30.3,7.7,30.5,7.7c5.7,1.6,10.8,3.6,15.3,5.3l0.6,0.2c11.3,4.3,20.8,8.8,20.9,8.9c3.5,1.6,6.2,2.4,9.2,2.8
		c4.8,0.5,9.4-1,11.2-1.8c2.2-1.1,4-2.2,6.4-3.7c1-0.6,2-1.3,3.3-2c3.5-2.1,10.1-6,15.5-8.1c8-3.1,14.6-3.3,23-3.3
		c7,0,11.7,0.4,18.6,1.5c3.6,0.6,12.7,1.7,18.1,1.9c16.2,0.6,27.6-1.8,27.7-1.9c18.1-3.1,27.5-8.3,32.5-11.1l0.4-0.2
		c4.7-2.6,9.3-6.5,14.7-12.4c3.7-4.1,6.8-9.5,9.3-13.8c0.9-1.5,1.7-2.9,2.5-4.2c1.3-2,2.5-3.8,3.6-5.4c0.8-1.2,1.6-2.4,2.2-3.4
		c1.5-2.2,2.4-3.2,3.3-4.3c0.5-0.6,1-1.3,1.7-2.2c2-2.9,3.4-5.4,4.8-8.5c1.1-2.2,2.6-5.4,3.7-8.3c0.3-0.7,0.6-1.5,0.9-2.2
		c0.7-1.6,1.4-3.3,1.9-4.9c1.3-3.5,2.3-7.2,2.3-7.2c8.4-27.2,17.6-48.9,17.7-49.1l9.1-23.6c1.1-3,2.4-7,3.1-9.9
		c1.2-4.8,1.3-8.8,1.3-8.9c0-5.2-1.5-9.8-4.5-14.2c-3.2-4.7-6.7-7.5-10.4-10.6l-0.5-0.4c-2.9-2.4-8.3-6.7-11.2-9
		c-2.6-2-5.1-4.4-7.5-7c-1.8-2.1-3.5-4.4-5-6.9c-4.4-7.3-6.6-15.4-7.8-20.8c-1.4-6.2-1.6-12.7-1.8-17c-0.2-5-0.9-13.2-0.9-13.3
		c-0.5-5.6-1-10-2.8-15.2c-2-5.9-5.1-9.9-7.8-13.2c-2.5-3-3.6-4.1-6.4-6.3c-4.9-4-8.6-7.3-11-9.9c-5.2-5.6-7.1-7.9-9.5-11
		c-2.3-2.9-7-8.3-10-11.2c-4.3-4.2-9.2-5.8-11.8-6.6l-0.6-0.2c-1-0.3-2.2-0.7-3.5-1.1c-1.9-0.6-4-1.3-5.7-1.8c-5-1.7-8.6-3-8.6-3
		l-14.2-4.9c-13-4-25.5-7-37.2-8.7c-10.7-1.6-17.6-2.1-26.1-2c-7.4,0.1-11.6,0.3-20.9,2c-12.3,2.4-23.2,8.5-23.3,8.6
		c-8.9,5.1-15,8.7-20.4,11.5c-7.4,3.9-13.3,6.6-20,9.5c-11.5,5-33.6,13.4-33.8,13.4C179.6,146.5,167.6,146.4,167.1,146.3z"/>
	<path class="st0" d="M275.9,509.4c-2.9,0-5.2-0.5-8.5-1.4c-3.1-0.8-6.9-2.6-10-4.5l-1.6-1c-2.5-1.6-4.7-3-8-4.7
		c-3.7-2-12.6-6.1-30.5-11.2c-0.1,0-5.8-1.8-14.9-4.1c-4.1-1-9.3-2.3-14.2-3.4l-1-0.2c-4.6-1-8.2-1.8-12.3-4.7c-3-2.1-5.8-5-8.7-8.9
		l-5.1-6.6c-0.1-0.1-3.2-4.4-10.1-10.8c-3.7-3.4-7.1-6.4-14-12.1c0,0-7.3-5.5-14.6-10.5c-4.4-3-12-6.5-15-7.7c-4.8-2-8.2-4-10.8-6.6
		c-1.7-1.7-5.7-6.7-9-12.8c-0.1-0.1-1.8-3.8-4.3-9.7l-0.8-1.8c-1.4-3.3-3-7.1-4.3-11.2c-0.4-1-4.7-13.1,2.2-27.7
		c2-4.2,3-6.3,4.1-8.3c0.6-1.1,1.2-2.3,1.9-3.7c1.8-3.6,3.2-6.6,4.8-11.7c0.9-2.9,1.9-7.1,0.6-13.7c0-0.1-1.4-7-5.1-14.6
		c-1.3-2.8-4.1-8.1-7.3-12.5c-0.3-0.4-0.6-0.9-1.1-1.5c-2.2-2.9-6.3-8.3-8.5-12.9c-2.6-5.5-3.9-11.7-3.6-18.3c0-0.3,0-9.2,3.5-18.2
		c1.7-4.3,3.8-8.3,6.5-12.4c0.1-0.1,2.9-4.1,5.8-11.3c1.6-4.1,3-8.4,4-12.9c0-0.2,1.2-5.2,3-9.5c1-2.5,2.8-5.1,4.5-7.6l0.1-0.1
		c0.1-0.1,5.6-6.9,9.8-16.6c0-0.1,1.2-2.8,3.4-6.1c1.3-2,4.2-5.1,6.4-7c5.2-4.5,9-6.9,12.8-9.1l0.7-0.4c0.6-0.3,1.1-0.7,1.7-1
		c4-2.5,8.4-5.2,15.8-7.4c5.5-1.6,12-2.6,19.9-3.1c0.1,0,9.6-0.4,16.1-2.2c3.2-0.9,9.5-2.7,15.2-5c0.1,0,8.7-3.1,19.4-8
		c6.2-2.8,11.9-5.6,17-8.4l28.1-16.2c0.1-0.1,14.3-8.6,30.3-14.4c0.7-0.3,18.5-7.5,39.8-3.3c0.2,0,28.1,5,64.6,14.9
		c0.1,0,17.5,4.1,31.8,11.2c9,4.5,13.9,7.7,20.6,16c0.2,0.3,4.1,5.4,6.5,10.1l0.4,0.8c1.1,2.2,2.4,4.9,5.1,8.2
		c2,2.5,7.2,7.3,9.2,9.1c3,2.7,6.2,6.1,9.6,12.5c2.4,4.6,4.8,9.7,5.2,16.5c0.4,6.5,0.4,12,0.4,12.1c0,0.2-0.1,16.2,4.7,34.7
		c0,0.1,2.3,8,6.9,15.3c4.2,6.7,9,12.4,14.4,17.4c0.1,0,8.7,7.5,12.4,10.5c4.5,3.7,8.5,7.4,12.6,11.4c4.9,4.9,8.4,10.1,9.9,14.7
		c0.1,0.2,2.3,6.6,1.4,16c-0.4,4.5-2.3,11.6-5.5,17.3l-1.6,2.9c-2.2,3.9-3.1,5.6-6.8,12.5l-0.7,1.4c-2.6,4.8-5.3,9.8-8.5,19.1
		c-1.5,4.4-3.4,11.1-5.2,17.5c-0.7,2.7-1.5,5.4-2.2,7.9c-2.2,7.7-4.1,12-8.8,22.2c-0.7,1.5-1.4,3.1-2.2,4.9l-0.1,0.3
		c-3.1,6.9-6.4,14.1-10.5,20.4c-0.4,0.6-0.8,1.2-1.2,1.7c-2.6,3.7-5.9,8.2-13.1,16.6c-9.2,10.6-17.6,18.2-24.9,22.6
		c-0.2,0.1-23.2,13.2-54.5,17.2c-0.1,0-10.8,1.5-25.4,1.5c-0.1,0-0.2,0-0.3,0c-7.1,0-17.1-1.1-21.9-1.8c-0.8-0.1-1.7-0.2-2.6-0.4
		c-3.4-0.5-7.7-1.2-12.2-1.2c0,0-0.1,0-0.1,0c-5.4,0-10.3,0.9-14.6,2.5c-4.3,1.7-11.6,5.8-22.9,12.9c-9.8,6.1-15.2,8.3-21.7,8.8
		C277.2,509.3,276.5,509.4,275.9,509.4z M96,180.7c-1.6,2.3-3.2,4.8-4.2,7c-1.7,4.1-2.8,9-2.8,9c-1.1,4.6-2.5,9.1-4.1,13.3
		c-3,7.6-6,11.8-6.1,11.9c-2.6,3.9-4.6,7.8-6.2,11.8c-3.3,8.5-3.3,17-3.3,17.1c-0.2,6.2,0.9,11.9,3.3,17c2,4.3,6,9.5,8.2,12.3
		c0.5,0.6,0.8,1.1,1.1,1.5c3.3,4.6,6.2,10.1,7.5,12.9c3.9,8,5.3,15.1,5.4,15.4c1.4,7.4,0.3,12.2-0.6,15.2c-1.7,5.3-3.2,8.5-5,12.1
		c-0.7,1.5-1.3,2.6-1.9,3.8c-1,2-2.1,4-4,8.2c-6.5,13.8-2.1,25.3-2.1,25.4l0,0.1c1.2,4,2.8,7.7,4.2,11l0.8,1.8
		c2.4,5.8,4.2,9.4,4.2,9.5c3.1,5.7,6.9,10.5,8.4,12c2.4,2.3,5.4,4.1,9.9,5.9c3.1,1.3,11,4.9,15.6,8c7.4,5,14.8,10.5,14.8,10.6
		c7,5.9,10.4,8.8,14.1,12.3c7.1,6.6,10.3,11,10.4,11.2l5.1,6.6c2.6,3.6,5.2,6.3,8,8.2c3.7,2.6,6.9,3.3,11.3,4.3l1,0.2
		c4.9,1.1,10.1,2.3,14.3,3.4c9.2,2.3,14.9,4.1,15,4.1c17.3,4.9,26.4,8.9,31.1,11.4c3.3,1.8,5.6,3.2,8.2,4.8l1.6,1
		c3.4,2.1,7,3.5,9.2,4.1c3.8,1,6.1,1.5,9.6,1.2c5.9-0.4,11-2.5,20.3-8.3c11.6-7.3,18.9-11.3,23.4-13.1c4.6-1.8,9.9-2.7,15.7-2.7
		c0,0,0.1,0,0.1,0c4.7,0,9.1,0.7,12.7,1.2c0.9,0.1,1.8,0.3,2.5,0.4c4.9,0.7,15,1.8,21.8,1.7c14.4-0.1,24.9-1.5,25-1.5
		c30.6-4,53.1-16.7,53.3-16.9c7-4.2,15.2-11.6,24.2-22c7.1-8.3,10.3-12.7,12.9-16.4c0.4-0.6,0.8-1.1,1.2-1.7c4-6.1,7.1-12.8,10.3-20
		l0.1-0.3c0.8-1.8,1.6-3.4,2.2-4.9c4.6-10.1,6.5-14.3,8.6-21.8c0.7-2.5,1.5-5.2,2.2-7.9c1.8-6.5,3.7-13.2,5.2-17.7
		c3.3-9.6,6.1-14.6,8.7-19.5l0.7-1.4c3.7-6.9,4.6-8.6,6.8-12.5l1.6-2.9c2.9-5.3,4.7-12.1,5.1-16.1c0.8-8.6-1.2-14.7-1.2-14.7
		c-1.3-4.2-4.6-8.9-9.1-13.5c-4-4-8-7.6-12.4-11.3c-3.7-3.1-12.4-10.5-12.5-10.6c-5.7-5.2-10.6-11.1-15-18
		c-4.9-7.7-7.1-15.8-7.2-16.2c-4.9-18.9-4.8-35.4-4.8-35.5c0-0.1,0-5.4-0.4-11.8c-0.4-6.2-2.6-11-4.9-15.3c-3.6-6.8-7.1-10-9-11.7
		c-3.5-3.2-7.7-7.1-9.5-9.5c-2.8-3.6-4.3-6.6-5.4-8.7l-0.4-0.7c-2.2-4.5-6.1-9.6-6.2-9.6c-6.3-7.8-11-10.9-19.6-15.2
		c-14-7-31-11-31.2-11c-36.4-9.9-64.2-14.8-64.4-14.9c-20.4-4.1-38,3-38.1,3.1c-15.7,5.7-29.7,14.1-29.8,14.2l-28.1,16.2
		c-5.2,2.8-11,5.7-17.3,8.5c-10.9,4.9-19.5,8-19.6,8c-5.7,2.3-12.2,4.1-15.5,5c-6.8,1.9-16.3,2.3-16.7,2.3c-7.6,0.5-13.9,1.5-19.2,3
		c-7,2-11.1,4.5-15.1,7c-0.6,0.4-1.1,0.7-1.7,1l-0.7,0.4c-3.6,2.2-7.4,4.5-12.4,8.8c-2,1.7-4.7,4.7-5.9,6.4c-2,3-3.1,5.6-3.1,5.6
		C101.9,173.2,96.5,180,96,180.7z"/>
	<path class="st0" d="M277.6,526.6c-1.7,0-3.5-0.1-5.6-0.2c-0.4,0-7.5-0.9-12.6-2.9c-2.6-1-5-2.1-8.3-3.7l-2.5-1.2
		c-0.8-0.4-1.5-0.7-2.2-1c-3.4-1.6-6.3-3-15.4-6.2c-6-2.1-13-4.3-19.2-6.1l-16.8-4.9c-0.6-0.2-16.2-4.6-26.3-10
		c-0.2-0.1-4.8-2.4-8.9-6.8c-1.6-1.7-3.7-4.4-5.6-6.9c-1-1.3-1.9-2.5-2.8-3.5c-2.7-3.3-5.6-6.5-8.6-9.4c-1.8-1.7-5.9-4.9-8.9-7.3
		l-1.8-1.4c-1.5-1.2-3-2.4-4.6-3.7c-2.3-1.9-4.6-3.8-7.2-5.8c-4.1-3.2-7.3-5.2-14.7-9.3c-2.3-1.3-6.1-2.9-9.1-4.1
		c-1.5-0.6-3-1.2-4-1.7c-0.4-0.2-0.9-0.4-1.3-0.6c-2.8-1.2-6.2-2.7-11.3-7.9c-2.3-2.4-5.3-5.5-7.9-9.4c-0.2-0.3-6.4-8.8-11.3-19.8
		c-4.4-9.7-6.3-18.7-5.7-26.7l0-0.1c0-0.3,1-6.4,4-13.8c1.8-4.4,3.3-8,4.8-11.1l4.5-10.7c0.9-1.9,3.2-7.2,3.4-10.1
		c0.2-3.1-0.6-6.7-2.2-10.2c0-0.1-2.8-6.4-8.7-14.6c-1.6-2.2-3.8-4.8-6-7.3c-1.8-2-3.6-4.1-5-6c-0.3-0.4-0.6-0.8-0.9-1.2
		c-3.1-3.9-6.8-8.6-8.4-19.2c-0.6-4.3-0.4-9.7,0.6-17.5c0.1-0.7,2.3-16.2,11.9-29.7c0.1-0.1,4.3-5.3,7.3-12c1.4-3,3-6.9,3.6-11.1
		c0.2-1.1,0.3-2,0.4-2.9c0.4-3.3,0.6-5.4,2.9-10.3c1.6-3.5,4.3-6.3,6.9-8.8c2.7-2.6,5.3-7.1,7.2-10.4L82,158
		c2.2-3.7,5.2-8.5,9.8-12.9c4.8-4.7,12-9,15.9-11.1c5.7-3.1,11.7-5.9,17.3-8.5l0.9-0.4c4.9-2.2,7.6-3.5,13.9-5.3
		c3.7-1.1,8.2-1.8,14.2-2.8l12.3-1.9c0.2,0,13-1.8,22.3-4.7c9.5-3,15.6-6,22.2-9.8c0.1-0.1,11.8-6.8,29.9-18.3
		c0.2-0.1,16.1-10.2,26.5-16.4c7.8-4.7,16.3-9.6,27.1-14.5c0.4-0.2,9.2-4.1,22.6-5c6.8-0.5,17,0.7,23.7,1.9c0.7,0.1,1.4,0.2,2.2,0.4
		c6.6,1.1,19,3.3,42.9,9.4c7.2,1.8,14.4,3.8,21.5,5.9c1.9,0.6,4,1.2,6.1,1.8c5.9,1.7,12,3.4,17.5,5.2c6.2,1.9,13.9,5,23.4,13.2
		c6.4,5.5,13.7,13,19.2,26.5l0,0.1c0,0,1.6,4.8,4.3,9.7c1.8,3.2,4.7,6.9,7.3,9l0.7,0.5c3.3,2.7,7.1,5.9,9.5,12.4
		c2,5.5,3.5,10.2,4.5,14.1c0,0.1,2,7.9,4.3,22.7c1.3,8.2,2.4,19.5,2.8,24c0.1,0.8,0.1,1.5,0.2,2.3c0.5,6,1,12.2,5.9,23.2
		c2.9,6.5,7.4,12.1,13.6,17.2l11.4,10.1c0.1,0.1,6.3,5.6,9.9,8.5c0.6,0.5,1.2,1,1.9,1.5c3.7,2.8,8.4,6.4,11.6,12.9
		c2.8,5.6,4.3,11.4,4.6,17.7c0,0.3,0.6,8.8-2.3,19.8c-1.7,6.3-4.9,13.2-9.6,20.6c-0.1,0.1-5.6,9-8.3,16.1c-2.3,6-4.4,12.8-7,22
		c-0.1,0.2-6.2,23.4-16.4,46.7c-0.1,0.2-12.5,33.3-43.1,57.2c-0.5,0.4-14.1,11.9-39.3,18.1c-0.1,0-14.4,3.9-30.8,7.3
		c-0.3,0.1-8.3,1.9-20.6,1.9c0,0,0,0-0.1,0c-4.6,0-11.8-0.2-21.4-1.9c-0.1,0-10.9-2.1-19.1-3.2c-6.9-0.9-13.5-0.9-18.1,0
		c-0.1,0-5.5,0.8-12.1,4.3c-3.5,1.8-7.5,4.5-12,7.9l0,0c0,0-4.3,3.6-8.3,6.5c-2.8,2-6.8,4.5-12.5,5.9
		C282.8,526.3,280.5,526.6,277.6,526.6z M58,366.5c-0.5,7.5,1.3,16,5.5,25.2c4.8,10.6,10.9,19.2,11,19.3c2.5,3.8,5.4,6.7,7.6,9
		c4.6,4.8,7.6,6.1,10.3,7.2c0.5,0.2,0.9,0.4,1.4,0.6c1,0.5,2.4,1,3.9,1.7c3.2,1.3,6.9,2.9,9.4,4.3c7.5,4.2,10.7,6.3,15,9.5
		c2.6,2,5,4,7.3,5.9c1.6,1.3,3.1,2.5,4.5,3.7l1.8,1.4c3.2,2.5,7.2,5.6,9.1,7.5c3.1,3,6.1,6.2,8.9,9.6c0.8,1,1.8,2.3,2.8,3.5
		c1.8,2.4,3.9,5.1,5.5,6.7c3.6,3.9,8,6.1,8,6.1c9.9,5.3,25.6,9.8,25.8,9.8l16.8,4.9c6.2,1.8,13.3,4,19.4,6.1
		c9.2,3.2,12.2,4.7,15.7,6.3c0.7,0.3,1.4,0.7,2.2,1l2.5,1.2c3.2,1.5,5.5,2.6,8.1,3.6c4.7,1.8,11.7,2.7,11.8,2.7
		c5.3,0.4,9,0.3,11.7-0.4c5.3-1.3,8.9-3.6,11.5-5.4c3.9-2.8,8.1-6.3,8.2-6.4c4.7-3.5,8.9-6.3,12.5-8.2c7.1-3.8,12.8-4.6,13-4.6
		c4.9-1,11.8-1,19,0c8.2,1.1,19.1,3.2,19.2,3.2c9.3,1.7,16.4,1.9,20.9,1.9c0,0,0,0,0.1,0c12,0,19.9-1.8,20-1.8
		c16.4-3.4,30.6-7.3,30.7-7.3c24.5-6.1,38-17.4,38.2-17.6c29.9-23.4,42.1-55.7,42.2-56c10.2-23.2,16.3-46.1,16.3-46.4
		c2.6-9.3,4.8-16.2,7.1-22.3c2.8-7.4,8.3-16.3,8.6-16.6c4.5-7.1,7.6-13.8,9.2-19.8c2.8-10.5,2.2-18.8,2.2-18.9
		c-0.3-5.9-1.7-11.2-4.3-16.5c-2.9-5.9-7.3-9.2-10.8-11.8c-0.7-0.5-1.4-1-2-1.5c-3.7-3-10-8.6-10-8.6l-11.4-10
		c-6.6-5.3-11.3-11.3-14.5-18.2c-5.1-11.5-5.7-17.9-6.2-24.2c-0.1-0.7-0.1-1.5-0.2-2.2c-0.8-9.3-1.9-18.2-2.7-23.8
		c-2.3-14.7-4.2-22.4-4.3-22.5c-0.9-3.7-2.4-8.4-4.4-13.8c-2.2-5.8-5.4-8.5-8.6-11.2l-0.7-0.6c-2.9-2.4-6-6.2-8-9.8
		c-2.7-4.9-4.3-9.6-4.5-10.2c-5.2-12.9-12.2-20-18.3-25.3c-9.1-7.8-16.4-10.8-22.3-12.6c-5.5-1.7-11.6-3.5-17.5-5.2
		c-2.1-0.6-4.2-1.2-6.1-1.8c-7-2-14.2-4-21.4-5.8c-23.8-6.1-36.1-8.2-42.7-9.3c-0.8-0.1-1.5-0.3-2.2-0.4c-6.5-1.1-16.4-2.3-22.9-1.9
		c-12.8,0.9-21.5,4.7-21.6,4.8c-10.6,4.8-19,9.7-26.8,14.3c-10.4,6.2-26.3,16.3-26.5,16.4c-18.1,11.5-29.9,18.3-30,18.3
		c-6.8,3.9-13,6.9-22.8,10c-9.5,3-22.2,4.7-22.8,4.8l-12.2,1.9c-5.9,0.9-10.3,1.7-13.8,2.7c-6.1,1.8-8.7,3-13.5,5.1l-0.9,0.4
		c-5.5,2.5-11.5,5.3-17,8.4c-6.4,3.5-11.9,7.4-15.2,10.6c-4.3,4.2-7.2,8.8-9.3,12.3l-0.7,1.1c-2,3.5-4.8,8.2-7.8,11
		c-2.4,2.3-4.8,4.9-6.2,7.9c-2.1,4.4-2.3,6.3-2.6,9.4c-0.1,0.9-0.2,1.8-0.4,2.9c-0.7,4.5-2.4,8.7-3.9,11.9c-3.2,7-7.5,12.3-7.6,12.5
		c-9.1,12.8-11.3,28.2-11.3,28.3c-1,7.5-1.2,12.6-0.6,16.7c1.4,9.8,4.8,14.1,7.8,17.8c0.3,0.4,0.6,0.8,1,1.2
		c1.4,1.8,3.2,3.9,4.9,5.9c2.2,2.6,4.5,5.2,6.2,7.6c6.1,8.5,8.9,14.8,9,15.1c1.8,4,2.7,8.1,2.4,11.7c-0.3,4-3.5,10.8-3.7,11.1
		l-4.5,10.7c-1.5,3.1-3,6.7-4.7,11C59.1,360.1,58.1,365.9,58,366.5z"/>
	<path class="st0" d="M274.6,540.8c-3.5,0-11.1-0.2-20.8-2c-5.4-1-13.6-2.7-18.5-4.3l-10-3.3c-0.1,0-6.4-2.4-15.5-4.2
		c-4.3-0.9-10.6-1.6-14.7-2l-0.3,0c-0.5-0.1-1-0.1-1.4-0.1c-3.6-0.3-7-0.7-15.2-4.1c-4.3-1.8-9-4.6-13.7-8.1
		c-3.3-2.4-6.9-6.2-8.9-8.2c-2.3-2.3-5.6-6.2-7.8-9.3c-0.1-0.2-0.3-0.5-0.5-0.8c-3.1-4.3-12.5-17.4-29.6-29.3
		c-0.1-0.1-9.3-6.3-22.4-12.9c-2.9-1.5-6.6-3-10.1-4.5c-3.2-1.3-6.2-2.6-8.5-3.7c-4.8-2.4-9.2-4.8-15.7-9.1
		c-9.1-6-16.6-14.3-21.2-23.4c-1.3-2.6-2.8-6-4.5-10.2c-2.1-5.1-2.6-6.8-3.6-9.6l-0.3-0.8c-1-2.7-2.8-7.7-2.4-15.1
		c0.2-3.6,0.9-7.2,2.1-10.7c0.8-2.4,2.4-5.4,3.8-8.2l5.3-10.2c0.1-0.1,4.3-7.3,5.2-9.1l0.4-0.7c1.1-2,3-5.6,4.5-10.6
		c0.8-2.7,1.5-6.6,1.4-9c-0.1-1.4-0.3-5.2-4.4-10.9c-1.4-2-4-4.7-6.2-6.9l-0.8-0.8c-0.9-0.9-2-2-3.3-3.3c-1.9-1.8-4-3.9-5.5-5.6
		l-0.7-0.8c-2.6-2.9-3.9-4.4-6.3-9.2c-3-6.2-4.5-13-4.3-20.4c0-0.9,0.3-23.3,11.3-43.5l7.2-13.6c0.5-0.9,2.8-5.6,3.5-8.7
		c0.5-2.4,0.9-6.2,1.1-8.9c0.1-0.8,0.1-1.5,0.2-2.1c0-0.3,0.1-0.6,0.1-1c0.2-3.3,0.7-9.5,8.4-16.7c0,0,3.6-3.1,5.9-5.1
		c0.3-0.2,0.6-0.5,0.9-0.7c1.3-1.1,3.1-2.6,5-4.6c1.2-1.3,2.4-2.8,3.8-4.5l1.3-1.6c0.3-0.4,0.7-0.8,1-1.3c1.6-2,3.7-4.7,8.5-9.2
		c8.3-7.7,16.3-13.4,24.6-17.5c5.6-2.8,9.3-4.1,15.9-6.1c0.3-0.1,9.7-3.3,31.6-7.7c7.4-1.5,15.4-3,21.3-3.9c6.2-1,13.4-2.4,21-5.4
		c11.3-4.5,21.3-10.1,30.4-17l41.2-28.6l12.5-9c0.1-0.1,8.9-6.1,14.5-9.4c5.3-3.1,11.1-6.2,17.6-8.2c7.5-2.2,13.9-3.1,21.4-3.1
		c4.8,0,13.6,0,32.4,5c2.6,0.7,5.5,1.4,8.5,2.2c6.8,1.7,14.5,3.7,22.7,6.1c0.5,0.1,48,13.7,67.9,22.1c0.4,0.1,10,3.9,17.8,8.6
		c5.6,3.4,9.5,8.3,11.3,14.3c0.1,0.2,1,4,1.5,6.9c0.6,3.8,1.3,6.1,3.7,10.9c1.5,2.9,3,5.4,5.8,8.2c2.9,2.8,5.2,5,7.5,7.9
		c6.9,9.1,10.9,17.9,12.2,26.7c0,0.3,3.9,29.2,3.1,52.2l-0.3,11.3c0,0-0.1,6.2,0.3,11.4c0.2,2.8,0.6,6.8,1.6,9.2
		c1.2,2.9,3.2,5.6,6.2,8.6c0.5,0.5,0.9,0.9,1.4,1.4c2,2.1,4.3,4.4,7.1,6.5l0.4,0.3c3,2.3,5.1,4,7.6,6c1.6,1.3,3.2,2.6,5.3,4.2
		c0.8,0.6,1.7,1.3,2.7,2.1c3.9,3,8.7,6.7,13.8,12c4.4,4.7,8.5,10,11,14.3c2.8,5,4.7,11.1,5.1,16.4c0.4,5.2-0.2,11.8-1.5,17.1
		c-0.6,2.6-2.6,9.6-6.2,18.4c-1.2,2.8-2.7,5.9-4.4,9.4c-1.1,2.3-2.4,5-3.8,8c-0.1,0.1-3.6,7.2-6.6,15.7c-1.4,3.9-4,14.2-5,18.9
		c-0.2,1-0.4,1.9-0.6,2.7c-0.6,2.8-1,5.1-2,8.2c-1.2,3.6-3.2,6.7-5.7,10.3l-0.2,0.3c-0.1,0.2-8.8,12.3-16.3,35.9l-3.6,10.6
		c-0.1,0.2-1.7,5.7-5.5,12.5c-0.8,1.4-2.5,4-5.2,7.6c-1.9,2.6-2.9,4-3.6,4.8c-0.1,0.1-0.2,0.2-0.2,0.3l0,0c-0.1,0.1-0.1,0.2-0.2,0.2
		c-2.7,3.3-8.3,10-13.8,15.2c-2.8,2.6-5.6,5-8.3,7l-1.3,1c-2.1,1.6-3.9,2.9-6.9,4.7l-0.3,0.2c-3.4,2-4.6,2.7-11,5.2
		c-3.6,1.4-7.4,2.4-12,3.3c-1,0.2-2.1,0.3-3.2,0.5c-4,0.5-8.5,1.2-15.9,4.8c-0.2,0.1-5.9,3-14.7,5.1c-4.7,1.2-10.6,2-17.5,2.5
		c-6,0.4-12.2,0.3-26.7-1.3c-4.6-0.5-9-1.3-13-2.1c-4.1-0.9-7.7-2-11.9-3.4c-0.1,0-8.2-2.7-14.5-3.6c-5.8-0.9-10.1-1-14.7,1.1
		c-0.1,0-4.6,2-11.5,5.8c-2,1.1-4.3,2.6-6.6,4.1c-1.7,1.1-3.2,2.1-4.6,2.9l-0.8,0.5c-2.9,1.8-7.8,4.7-13.6,6.5
		c-5.1,1.6-10.8,2.6-16.6,2.9C276.6,540.8,275.9,540.8,274.6,540.8z M41,203.9c-0.1,0.2-0.2,0.3-0.2,0.5l-6.8,12.9
		C23.3,236.9,23,259.2,23,259.5c-0.2,6.9,1.2,13.3,4,19c2.1,4.4,3.3,5.7,5.8,8.5l0.7,0.8c1.4,1.6,3.5,3.6,5.3,5.4
		c1.3,1.2,2.4,2.4,3.3,3.3l0.8,0.8c2.2,2.3,4.9,5.1,6.4,7.2c4.6,6.4,4.9,10.8,5,12.5c0.2,2.9-0.6,7.1-1.5,10.1
		c-1.6,5.3-3.7,9.1-4.8,11.2l-0.3,0.6c-1,1.9-5.1,8.9-5.2,9.2l-5.3,10.2c-1.4,2.7-2.9,5.6-3.7,7.8c-1.1,3.2-1.8,6.6-1.9,9.9
		c-0.3,6.8,1.3,11.2,2.2,13.9l0.3,0.8c1,2.7,1.6,4.4,3.6,9.5c1.6,4.1,3.1,7.4,4.4,9.9c4.3,8.6,11.5,16.5,20.2,22.2
		c6.4,4.2,10.8,6.6,15.4,9c2.2,1.1,5.2,2.3,8.3,3.7c3.6,1.5,7.3,3,10.3,4.6c13.3,6.7,22.7,13.1,22.8,13.1
		c17.6,12.2,27.2,25.6,30.4,30l0.5,0.7c2.2,3,5.3,6.7,7.5,9c1.9,2,5.5,5.6,8.6,7.9c4.5,3.4,9.1,6,13.1,7.7c7.8,3.2,11,3.6,14.3,3.9
		c0.5,0,1,0.1,1.5,0.2l0.3,0c4.2,0.5,10.6,1.2,15,2.1c9.4,1.9,15.7,4.3,15.9,4.4l10,3.3c4.8,1.6,12.8,3.3,18.1,4.2
		c12.9,2.3,22.2,1.9,22.3,1.9c5.5-0.3,11-1.2,15.9-2.8c5.4-1.7,10.1-4.5,12.9-6.2l0.8-0.5c1.4-0.8,2.9-1.8,4.6-2.8
		c2.3-1.5,4.8-3,6.8-4.2c7.1-3.9,11.6-5.9,11.8-6c5.8-2.6,11.2-2,16.3-1.3c6.5,1,14.6,3.6,15,3.7c4.1,1.4,7.6,2.5,11.6,3.3
		c3.9,0.9,8.2,1.6,12.7,2.1c14.2,1.7,20.3,1.7,26.1,1.3c6.6-0.5,12.5-1.3,17-2.4c8.4-2,14-4.9,14.1-4.9c7.8-3.8,12.8-4.5,16.8-5.1
		c1.1-0.1,2.1-0.3,3-0.5c4.5-0.8,8.1-1.8,11.5-3.1c6.2-2.4,7.3-3,10.6-5l0.3-0.2c2.9-1.7,4.5-2.9,6.6-4.5l1.3-1
		c2.6-2,5.4-4.3,8.1-6.8c6.7-6.2,13.5-14.8,14.8-16.5l0.3-0.4c2.2-2.9,6.1-8.2,7.3-10.4c3.6-6.5,5.2-11.9,5.3-12l3.6-10.7
		c7.7-24.1,16.3-36.2,16.7-36.7l0.2-0.2c2.3-3.5,4.3-6.4,5.3-9.6c0.9-2.9,1.4-5.2,2-7.9c0.2-0.9,0.4-1.8,0.6-2.8
		c1-4.8,3.7-15.3,5.2-19.3c3.1-8.7,6.7-16,6.7-16c1.4-3,2.7-5.6,3.8-8c1.7-3.5,3.2-6.5,4.3-9.2c3.6-8.6,5.4-15.4,6.1-18
		c1.5-6,1.7-12.2,1.5-16.1c-0.3-4.9-2.1-10.5-4.7-15.2c-2.3-4.1-6.3-9.3-10.6-13.8c-4.9-5.2-9.7-8.8-13.5-11.7
		c-1-0.7-1.9-1.4-2.7-2.1c-2-1.6-3.7-3-5.3-4.3c-2.5-2-4.6-3.8-7.5-6l-0.4-0.3c-2.9-2.2-5.3-4.7-7.4-6.8c-0.5-0.5-0.9-1-1.4-1.4
		c-3.3-3.3-5.4-6.3-6.8-9.5c-1.2-2.7-1.6-6.9-1.8-10.2c-0.4-5.4-0.3-11.6-0.3-11.7l0.3-11.3c0.8-22.8-3.1-51.4-3.1-51.7
		c-1.3-8.3-5.1-16.6-11.7-25.3c-2.1-2.8-4.3-4.9-7.2-7.6c-3.1-3.1-4.8-5.8-6.4-9c-2.6-5.1-3.3-7.8-4-11.8c-0.4-2.7-1.4-6.5-1.4-6.6
		c-1.6-5.3-4.9-9.5-9.9-12.5c-7.6-4.6-17.2-8.3-17.3-8.4c-19.7-8.4-67.1-21.9-67.6-22c-8.2-2.5-15.9-4.4-22.6-6.1
		c-3-0.8-5.9-1.5-8.5-2.2c-18.4-4.9-27-4.9-31.6-4.9c-7.3,0-13.3,0.8-20.5,3c-6.2,1.8-11.8,4.9-17,7.9c-5.5,3.2-14.2,9.2-14.3,9.2
		L266.3,54l-41.2,28.6c-9.3,7-19.5,12.7-31.1,17.4c-7.9,3.2-15.3,4.5-21.7,5.6c-5.9,1-13.8,2.4-21.2,3.9
		c-21.7,4.4-31.2,7.6-31.3,7.6c-6.5,2-10.1,3.3-15.5,6c-8,4-15.8,9.5-23.9,17c-4.7,4.4-6.7,7-8.2,8.9c-0.4,0.5-0.7,0.9-1.1,1.4
		l-1.3,1.5c-1.4,1.7-2.7,3.2-4,4.6c-2.1,2.2-3.9,3.7-5.3,4.9c-0.3,0.3-0.6,0.5-0.8,0.7c-2.3,2-5.9,5.1-5.9,5.1
		c-6.8,6.3-7.2,11.5-7.4,14.6c0,0.4-0.1,0.7-0.1,1.1c-0.1,0.6-0.1,1.3-0.2,2.1c-0.3,3-0.6,6.7-1.2,9.3c-0.4,1.6-1.1,3.7-2.3,6.3
		C41.8,202.4,41.3,203.4,41,203.9z"/>
	<path class="st0" d="M272.9,557.6c-6.2,0-22-0.7-36.9-6.7c-5.1-2-7.5-2.9-10.4-4c-2-0.7-4.2-1.6-7.5-2.9c-0.2-0.1-11-4.7-23.3-4.7
		c-0.2,0-0.3,0-0.5,0c-0.9,0-22.6,0.4-35.8-10.1c-0.2-0.2-5.8-4.4-12.3-13c-1.4-1.9-2.9-4.2-4.3-6.5c-0.9-1.4-1.7-2.7-2.5-3.9
		c-2.1-3.2-6-8.5-10.5-13.9c-2.9-3.5-6.5-7.1-10.3-10.4c-0.1-0.1-6.6-5.9-18.2-11.4c-7.9-3.7-16.3-6.7-24.3-8.8
		c-5.2-1.3-7.5-2-12-3.2l-1.8-0.5c-4.4-1.2-16-4.3-25.8-10.8c-4.8-3.2-9.6-8.1-11.8-11.3c-2.2-3.3-4.1-6.2-7-11.5
		c-1.9-3.5-4-7.8-6.2-13c0-0.1-2.2-5.2-4.2-11.2c-2-6.1-2.6-13.4-1.6-19.5c0.6-3.7,2.6-8.4,2.8-8.8c0.2-0.4,2.7-6.7,7.7-15.9
		c2.1-4,5-8.6,6.9-11.7l0.4-0.6c0.4-0.6,0.8-1.2,1.2-1.9c1.4-2.2,3-4.6,4.7-8.4c1.3-2.8,1.7-5.9,1.2-8.6c0-0.1-0.7-4.9-5.6-10.9
		l-5.8-7.5c0,0-3.7-5.1-5.9-8.1c-2.5-3.4-4.6-6.8-7.5-12.2c-1.4-2.7-2.6-5.5-3.5-8.3c-1.2-3.9-2.1-9.9-2.1-15.1
		c0-4,0.1-5.9,0.4-10.2c0.7-7.8,2.6-19.9,8.2-33c0.1-0.2,2.7-7,9.3-18.4l0.1-0.1c0,0,3.2-4.6,5.5-10.7c1.4-3.7,2.3-6.4,2.6-11.6
		c0-0.8-0.2-8.3,2.6-13.7l0.1-0.1c0.2-0.3,4.3-7,15.3-16.7l8.7-7.7c0.1-0.1,8-7.1,18.1-14.3c0.1-0.1,7.5-5.4,12.7-8.9l0.6-0.4
		c6.1-4.1,22.2-14.8,45.3-18.5c0.1,0,7.9-1.2,18.5-3c0.2,0,12.3-1.8,24-4.5c7-1.6,12.9-3.5,18.5-5.8c0.1,0,5.2-2.1,14.2-7.7
		c6-3.8,12.3-8.2,18.7-13.2c0.4-0.3,31.5-23.2,38.8-29.4c4.5-3.9,7.1-5.9,9.9-8c1.8-1.4,3.6-2.8,6.1-4.8c7-5.7,18-12.2,26.8-15.9
		c7-3.1,15.7-5.1,24.4-5.6c9.4-0.5,16,0.4,22.4,1.3c6.6,0.9,24.9,4.9,38.1,8.2c15.5,3.8,41,11,54.1,15.1
		c13.3,4.2,36.5,12.4,36.7,12.5c0.3,0.1,8.9,3,15.5,7.6c5.1,3.6,9.6,8.4,13.2,14.2c2.2,3.5,4.3,8.8,5.4,13.6c0,0.1,1.6,7.7,4.1,11.2
		c0,0.1,4.6,6.3,10.9,12c0.3,0.2,7.2,6.4,10.9,12.7c2.7,4.6,4.6,10.3,5.3,16c0,0.3,2.6,24.7-2.5,56.8l-3.1,17.4
		c0,0.1-2.1,10.7-1.5,16.7c0.6,5.5,2.3,9.4,5.8,12.8c0.1,0.1,10.6,9.9,18.5,15.7l17,13.5c0.5,0.4,11.2,9.8,16.9,17.8
		c3.7,5.3,10.1,16.1,10.4,28.8c0,0.6-0.4,14.1-5.1,25.8c-1.3,3.3-2.7,6.8-4.6,11.2c-1.1,2.7-2.4,5.6-3.8,9c0,0-2.4,6-6.3,14.7
		c-1.7,3.8-3.4,8.7-5.4,15.3c0,0.1-1.7,5-3.4,14.4c0,0.2-1,6.1-3.6,13.6c-1.3,3.8-3.5,7.4-5.7,10.8c-0.6,0.9-1.1,1.8-1.7,2.7
		c-0.1,0.1-4.7,6.9-8,13.2l-0.4,0.7c-2,3.8-4.3,8.1-7.5,30.9c-0.1,0.5-2,11.4-6.5,18.6c-4.4,7-7.3,10.7-13,16.5
		c-1.1,1.3-23.1,26.6-63.1,38.6c-0.3,0.1-30.6,9.3-55.7,10.5c-1.3,0-30.2,0.7-51.6-9.4l-0.1-0.1c-0.1,0-5.9-3.6-9.6-5.7l-0.4-0.2
		c-4.8-2.7-7.5-4.2-14.4-4.3c-0.1,0-7.6,0.2-17.8,7.2c-0.1,0-9.9,7.3-12.9,9.4c-0.2,0.2-0.5,0.4-0.9,0.6c-3.9,2.9-13.2,9.8-30.3,9.8
		C275.4,557.6,274.4,557.6,272.9,557.6z M194.7,536.4c13,0,23.9,4.7,24.4,4.9c3.3,1.3,5.4,2.1,7.4,2.8c2.9,1.1,5.4,2,10.4,4
		c18.1,7.3,38.2,6.4,38.4,6.4c16.2,0,24.9-6.4,28.6-9.2c0.4-0.3,0.7-0.5,0.9-0.7c3-2.1,12.8-9.3,12.9-9.4
		c11.1-7.6,19.2-7.7,19.5-7.7c7.7,0,10.9,1.9,15.8,4.6l0.4,0.2c3.5,2,8.9,5.3,9.6,5.7c20.7,9.8,49.8,9.1,50.1,9.1
		c24.7-1.1,54.6-10.2,54.9-10.3c40.1-12,61.5-37.4,61.7-37.7l0.1-0.1c5.6-5.7,8.3-9.1,12.6-16c4.2-6.7,6.1-17.3,6.1-17.4
		c3.3-23.2,5.7-27.8,7.8-31.8l0.4-0.7c3.4-6.5,8-13.1,8.2-13.4c0.5-0.8,1.1-1.8,1.7-2.7c2.1-3.3,4.3-6.8,5.4-10.2
		c2.5-7.2,3.5-13.1,3.5-13.1c1.8-9.6,3.5-14.5,3.5-14.8c2.1-6.8,3.8-11.6,5.5-15.6c3.9-8.6,6.3-14.5,6.3-14.6
		c1.4-3.4,2.7-6.4,3.8-9.1c1.9-4.4,3.3-7.9,4.6-11.2c4.5-11.2,4.9-24.6,4.9-24.7c-0.3-11.8-6.3-22.1-9.8-27.1
		c-5.4-7.7-16.2-17.2-16.3-17.3l-16.9-13.4c-8-5.9-18.6-15.8-18.8-15.9c-5.1-5.1-6.3-10.5-6.7-14.7c-0.7-6.5,1.4-17.1,1.5-17.6
		l3.1-17.3c5-31.6,2.5-55.7,2.5-55.9c-0.6-5.2-2.4-10.5-4.9-14.8c-3.5-5.9-10.3-11.9-10.3-12c-6.5-5.9-11.1-12.2-11.3-12.5
		c-2.9-4-4.5-11.9-4.6-12.3c-1-4.4-3-9.4-5-12.6c-3.4-5.5-7.6-10-12.4-13.4c-6.3-4.4-14.7-7.2-14.8-7.2c-0.3-0.1-23.4-8.3-36.6-12.4
		c-13-4.1-38.4-11.2-53.9-15c-13.1-3.2-31.2-7.2-37.8-8.1c-6.2-0.8-12.7-1.7-21.9-1.3c-8.4,0.4-16.7,2.3-23.4,5.3
		c-8.4,3.6-19.4,10.1-26.1,15.5c-2.6,2.1-4.4,3.5-6.2,4.9c-2.8,2.2-5.3,4.1-9.8,7.9c-7.3,6.3-37.6,28.5-38.9,29.5
		c-6.5,5.1-12.8,9.6-18.9,13.4c-9.2,5.8-14.4,7.8-14.6,7.9c-5.7,2.4-11.7,4.3-18.9,5.9c-11.9,2.7-24.1,4.5-24.2,4.5
		c-10.6,1.8-18.4,3-18.5,3c-22.5,3.6-38.2,14.1-44.1,18.1l-0.6,0.4c-5.2,3.5-12.6,8.7-12.6,8.8c-10,7.1-17.8,14.1-17.9,14.1
		l-8.7,7.7c-10.1,9-14.3,15.4-14.7,16c-2.5,4.9-2.2,12.1-2.2,12.2l0,0.1l0,0.1c-0.2,5.6-1.3,8.7-2.8,12.6
		c-2.4,6.2-5.4,10.7-5.8,11.3c-6.4,11.2-9.1,17.9-9.1,18c-5.4,12.8-7.3,24.5-8,32.2c-0.4,4.2-0.4,6.1-0.4,9.9c0,5,0.8,10.6,1.9,14.2
		c0.8,2.7,2,5.3,3.3,7.8c2.9,5.3,4.8,8.5,7.3,11.8c2.3,3.1,5.9,8.1,5.9,8.1l5.7,7.4c5.5,6.7,6.2,12.1,6.2,12.3c0.6,3.3,0,7-1.5,10.3
		c-1.8,4-3.5,6.6-4.9,8.8c-0.4,0.6-0.8,1.2-1.2,1.8l-0.4,0.6c-1.9,3-4.7,7.6-6.8,11.5c-4.9,9.2-7.5,15.5-7.5,15.6l0,0
		c0,0-2,4.7-2.6,8.1c-0.9,5.7-0.4,12.4,1.5,18.1c1.9,5.8,4.1,10.9,4.1,11c2.1,5.1,4.2,9.4,6,12.7c2.9,5.2,4.7,8.1,6.9,11.3
		c2,2.9,6.5,7.5,10.9,10.5c9.5,6.3,20.7,9.3,25,10.4l1.8,0.5c4.5,1.3,6.8,1.9,12,3.2c8.2,2.1,16.8,5.2,24.8,9
		c12.1,5.7,18.6,11.6,18.9,11.8c3.9,3.3,7.6,7.1,10.7,10.7c4.6,5.5,8.5,10.9,10.7,14.2c0.8,1.2,1.7,2.6,2.6,4
		c1.4,2.2,2.9,4.5,4.2,6.3c6.2,8.2,11.7,12.4,11.7,12.5c12.4,9.9,33.7,9.4,33.9,9.4C194.4,536.4,194.6,536.4,194.7,536.4z"/>
	<path class="st1" d="M302.5,229.8"/>
	<path class="st1" d="M406.4,191.4"/>
</g>
</svg>
