<?xml version="1.0" encoding="utf-8"?>
<!-- Generator: Adobe Illustrator 27.0.1, SVG Export Plug-In . SVG Version: 6.00 Build 0)  -->
<svg version="1.1" id="Logo_Claim_verstärkt_CMYK" xmlns="http://www.w3.org/2000/svg" xmlns:xlink="http://www.w3.org/1999/xlink"
	 x="0px" y="0px" viewBox="0 0 945.5 255.7" style="enable-background:new 0 0 945.5 255.7;" xml:space="preserve">
<style type="text/css">
	.st0{fill:#FFFFFF;}
</style>
<path class="st0" d="M885,163v-10.1h-0.3c-0.8,1.8-1.9,3.5-3.4,4.9c-1.9,1.9-4,3.5-6.4,4.8c-2.6,1.4-5.5,2.1-8.5,2.1
	c-6.4-0.1-11.5-1.9-15.1-5.4c-3.8-3.8-6.5-8.6-7.7-13.8c-1.5-6.2-2.3-12.5-2.2-18.9c-0.1-6.5,0.8-13,2.6-19.3
	c1.4-5.2,4.2-9.9,8.1-13.7c3.7-3.4,8.4-5.1,14.2-5.2c5.4,0.2,9.5,1.5,12.4,3.8c2.4,1.8,4.4,4,5.8,6.6h0.3V59.2c0-1,0.8-1.8,1.8-1.8
	h13.4c1,0,1.8,0.8,1.8,1.8v102c0,1-0.8,1.8-1.8,1.8L885,163z M885,126.5c0.1-6.9-0.9-12.8-2.8-17.5c-1.9-4.7-5.3-7.2-10.1-7.4
	c-3.7,0.1-6.4,1.4-8.2,3.8c-1.9,2.8-3.2,6-3.5,9.3c-0.6,3.9-0.8,7.9-0.8,11.8c-0.1,3.9,0.2,7.7,0.9,11.6c0.5,3.4,1.7,6.6,3.7,9.5
	c1.9,2.5,4.9,4,8,3.9c3,0,5.8-1.5,7.5-3.9c2-2.8,3.4-6,4.1-9.4C884.6,134.4,885.1,130.5,885,126.5L885,126.5z M778.1,163v-8.4h-0.3
	c-1.3,2.8-3.4,5.1-6,6.8c-2.9,2.1-7.3,3.1-13,3.3c-6.2-0.1-11.3-1.8-15.3-5.1c-4-3.4-6-8-6.1-14c0.1-6,1.8-10.7,4.9-14
	c3.2-3.4,7.2-5.9,11.6-7.3c4.4-1.4,8.9-2.4,13.5-2.8c4.4-0.4,8-0.6,10.6-0.6v-7.2c0.2-3.2-0.5-6.5-2-9.4c-1.4-2.5-4.2-3.9-8.3-4
	c-4.6,0.2-7.6,1.4-9.1,3.8c-1.5,2.2-2.2,4.8-2.1,7.4h-14.6c-1,0-1.9-0.8-1.9-1.9c0,0,0,0,0-0.1c0.2-5.7,2.6-11,6.8-14.8
	c4.6-4.1,11.5-6.3,20.8-6.3c17.8,0.1,26.7,7.7,26.5,22.6v50.1c0,1-0.8,1.8-1.8,1.8L778.1,163z M778.1,130.8c-3.8,0-7.5,0.4-11.2,1.2
	c-3.3,0.7-6.5,2.1-9.2,4.2c-2.4,1.8-3.8,4.7-3.8,7.8c0.1,5.7,3.1,8.6,9,8.7c3.3,0.1,6.5-1.2,8.8-3.5c2.3-2.3,4-5.2,4.8-8.3
	C777.6,137.6,778.1,134.2,778.1,130.8L778.1,130.8z M477,153.7c-6.3-7.2-9.5-17.5-9.5-31c-0.1-10.3,2.4-18.6,7.3-24.8
	c5-6.2,12.9-9.4,23.9-9.5c9.3,0.1,16.2,2.8,20.8,8.1s6.9,12.4,6.9,21.4v4.1h-41.2c-1,0-1.8,0.8-1.9,1.8c0,0,0,0.1,0,0.1
	c0.3,3.6,1.2,7.2,2.5,10.6c1.8,4.8,4.8,9.1,8.6,12.5c4,3.6,9.4,5.5,16.2,5.7c2.6,0,5.3-0.4,7.8-1c2.1-0.5,4.1-1.1,6.1-1.8v10.4
	c0,0.8-0.5,1.5-1.3,1.8c-6.2,1.8-12.6,2.6-19.1,2.5C492.3,164.6,483.3,160.9,477,153.7L477,153.7z M483.7,111.9h26.6
	c0-1.8-0.3-3.6-1-5.3c-0.8-2-2.1-3.7-3.8-5c-1.9-1.4-4.5-2.2-8-2.2c-2.8-0.1-5.6,0.7-7.9,2.3c-1.8,1.3-3.3,3.1-4.3,5.1
	C484.4,108.3,483.9,110.1,483.7,111.9L483.7,111.9z M578.7,162.9v-10.1h-0.3c-0.8,1.8-1.9,3.5-3.4,4.9c-1.9,1.9-4,3.5-6.4,4.8
	c-2.6,1.4-5.5,2.1-8.5,2.1c-6.4-0.1-11.5-1.9-15.1-5.4c-3.8-3.8-6.5-8.6-7.7-13.8c-1.5-6.2-2.2-12.6-2.1-18.9
	c-0.1-6.5,0.8-13,2.6-19.3c1.4-5.2,4.2-9.9,8.1-13.7c3.7-3.4,8.4-5.1,14.2-5.2c5.4,0.2,9.5,1.5,12.4,3.8c2.4,1.8,4.4,4,5.8,6.6h0.3
	V59.2c0-1,0.8-1.8,1.8-1.8c0,0,0,0,0,0h13.4c1,0,1.8,0.8,1.8,1.8v102c0,1-0.8,1.8-1.8,1.8L578.7,162.9z M578.7,126.5
	c0.1-6.9-0.8-12.8-2.8-17.5s-5.3-7.2-10.1-7.4c-3.7,0.1-6.4,1.3-8.2,3.8c-1.9,2.8-3.2,6-3.6,9.3c-0.6,3.9-0.8,7.9-0.8,11.8
	c0,3.9,0.2,7.7,0.9,11.6c0.5,3.4,1.7,6.6,3.7,9.5c1.9,2.5,4.9,4,8,3.9c3,0,5.8-1.5,7.5-3.9c2-2.8,3.4-6,4.1-9.4
	C578.3,134.3,578.7,130.4,578.7,126.5L578.7,126.5z M332.5,161.2v-42c0-1,0.8-1.8,1.8-1.8l0,0h35.9c1,0,1.8-0.8,1.8-1.8v-10.9
	c0-1-0.8-1.8-1.8-1.8h-35.9c-1,0-1.8-0.8-1.8-1.8c0,0,0,0,0,0V73.7c0-1,0.8-1.8,1.8-1.8c0,0,0,0,0,0h38.1c1,0,1.8-0.8,1.8-1.8V59.2
	c0-1-0.8-1.8-1.8-1.8h-56.1c-1,0-1.8,0.8-1.8,1.8v102c0,1,0.8,1.8,1.8,1.8h14.3C331.7,163,332.5,162.2,332.5,161.2z M422.9,88.5
	c-6.1,0.4-10.7,2-13.8,4.8c-3.2,2.9-5.8,6.4-7.8,10.2h-0.3V91.9c0-1-0.8-1.8-1.8-1.8h-13.4c-1,0-1.8,0.8-1.8,1.8v69.2
	c0,1,0.8,1.8,1.8,1.8h13.4c1,0,1.8-0.8,1.8-1.8V131c-0.1-8.7,1.8-15.1,5.5-19c3.5-3.6,9-5.6,16.6-5.8c1,0,1.8-0.8,1.8-1.8v-14
	C424.9,89.4,424.1,88.5,422.9,88.5C423,88.5,423,88.5,422.9,88.5z M439.2,71.9h13.4c1,0,1.8-0.8,1.8-1.8V59.2c0-1-0.8-1.8-1.8-1.8
	h-13.4c-1,0-1.8,0.8-1.8,1.8c0,0,0,0,0,0v10.9C437.4,71,438.2,71.9,439.2,71.9C439.2,71.9,439.2,71.9,439.2,71.9L439.2,71.9z
	 M454.4,161.2V91.9c0-1-0.8-1.8-1.8-1.8h-13.4c-1,0-1.8,0.8-1.8,1.8c0,0,0,0,0,0v69.2c0,1,0.8,1.8,1.8,1.8c0,0,0,0,0,0h13.4
	C453.6,163,454.4,162.2,454.4,161.2z M718.3,161.5l19.2-102c0.2-1-0.5-1.9-1.4-2.1c-0.1,0-0.2,0-0.4,0H723c-0.9,0-1.6,0.6-1.8,1.5
	l-14.6,78h-0.3l-26.8-78.2c-0.3-0.7-0.9-1.2-1.7-1.2H666c-0.8,0-1.5,0.5-1.7,1.2l-26.5,78.2h-0.3l-14.9-78c-0.2-0.9-0.9-1.5-1.8-1.5
	h-12.7c-1,0-1.8,0.8-1.8,1.8c0,0.1,0,0.2,0,0.4l19.7,102c0.2,0.9,0.9,1.5,1.8,1.5h15.9c0.8,0,1.5-0.5,1.7-1.2l26.4-76.8h0.3
	l26.8,76.8c0.3,0.7,0.9,1.2,1.7,1.2h15.9C717.4,163,718.1,162.3,718.3,161.5L718.3,161.5z M827.7,161.2v-102c0-1-0.8-1.8-1.8-1.8
	h-13.4c-1,0-1.8,0.8-1.8,1.8v102c0,1,0.8,1.8,1.8,1.8h13.4C826.9,163,827.7,162.2,827.7,161.2z"/>
<path class="st0" d="M937.1,54.3c0-4.3-3.2-4.8-6.1-4.8h-5v14.8h2.7v-6h3.2l2.3,6h3l-2.8-6.4C935.5,57.5,937.1,56.9,937.1,54.3z
	 M932,56h-3.2v-3.9h3c1.6,0,2.5,0.7,2.5,2S933.3,56,932,56L932,56z"/>
<path class="st0" d="M931.4,43.2c-7.8,0-14.1,6.3-14.1,14.1s6.3,14.1,14.1,14.1s14.1-6.3,14.1-14.1
	C945.4,49.5,939.2,43.3,931.4,43.2z M931.4,69.2c-6.6,0-12-5.4-12-12s5.4-12,12-12s12,5.4,12,12C943.4,63.9,938.1,69.2,931.4,69.2
	C931.4,69.3,931.4,69.3,931.4,69.2L931.4,69.2z"/>
<path class="st0" d="M255.7,127.8c0,70.6-57.2,127.8-127.8,127.8C57.2,255.7,0,198.4,0,127.8S57.2,0,127.8,0c0,0,0,0,0,0
	C198.4,0.1,255.6,57.3,255.7,127.8z M251.3,127.8C251.3,59.6,196,4.3,127.8,4.3S4.4,59.6,4.4,127.8s55.3,123.5,123.5,123.5
	C196,251.2,251.2,196,251.3,127.8L251.3,127.8z"/>
<path class="st0" d="M133.9,18.2v219.3c0,1.6-1.2,2.9-2.8,2.9c-2,0-4.6,0-6.5,0c-1.6,0-2.9-1.3-2.9-2.9V18.2c0-1.6,1.3-2.9,2.9-2.9
	h6.4C132.7,15.3,133.9,16.6,133.9,18.2C133.9,18.2,133.9,18.2,133.9,18.2z"/>
<path class="st0" d="M144.1,19.8v57.9c0,1.6,1.3,2.9,2.9,2.8c0.7,0,1.5-0.3,2-0.8l41.4-41.3c1.1-1.1,1.1-3,0-4.1
	c-0.1-0.1-0.3-0.2-0.4-0.3c-1.9-1.3-3.8-2.5-5.7-3.6c-1.1-0.7-2.6-0.5-3.5,0.5l-24.5,24.4V21.1c0-1.3-0.9-2.5-2.2-2.8
	c-2.2-0.5-4.4-1-6.6-1.4c-1.6-0.2-3.1,0.8-3.3,2.4C144.1,19.5,144.1,19.6,144.1,19.8z"/>
<path class="st0" d="M238,104.9c-0.4-2.2-0.9-4.4-1.5-6.6c-0.3-1.3-1.5-2.2-2.8-2.1h-38l26-26c1-1,1.1-2.5,0.4-3.6
	c-1.2-1.9-2.5-3.7-3.8-5.6c-1-1.3-2.8-1.5-4.1-0.6c-0.1,0.1-0.2,0.2-0.3,0.3l-42.8,42.8c-1.1,1.1-1.1,2.9,0,4c0.5,0.5,1.3,0.8,2,0.8
	h61.9c1.6,0,2.9-1.2,2.9-2.9C238.1,105.3,238.1,105.1,238,104.9z"/>
<path class="st0" d="M144.9,98.2c-0.5,0.5-0.8,1.2-0.8,2v104.1c0,0.5,0.2,1.1,0.5,1.5l15.4,27.7c0.7,1.1,2.1,1.6,3.4,1.2
	c2.1-0.7,4.2-1.5,6.3-2.4c1.5-0.6,2.2-2.3,1.5-3.8c-0.1-0.1-0.1-0.3-0.2-0.4l-14.2-25.8c-0.3-0.5-0.5-1-0.5-1.5v-67.2
	c0-1.6,1.3-2.9,2.9-2.9h77.2c2.6,0,4-0.7,4-3.6c0-2.3-0.1-3.7-0.2-6c-0.1-1.5-1.4-2.7-2.9-2.7h-78.2c-1.6,0-2.9-1.3-2.9-2.9v-10.4
	c0-0.8,0.3-1.5,0.8-2l50.6-50.6c1.1-1.1,1.1-2.9,0-4.1c-1.5-1.6-3.1-3.1-4.8-4.6c-1.2-1-2.9-1-4,0.1L144.9,98.2z"/>
<path class="st0" d="M108.2,16.9c-2.2,0.4-4.4,0.8-6.6,1.4c-1.3,0.3-2.2,1.5-2.2,2.8v34.1L74.9,30.8c-0.9-0.9-2.4-1.1-3.5-0.5
	c-1.9,1.1-3.9,2.4-5.7,3.6c-1.3,0.9-1.6,2.7-0.7,4c0.1,0.1,0.2,0.3,0.3,0.4l41.4,41.3c1.1,1.1,2.9,1.1,4.1,0c0.5-0.5,0.8-1.2,0.8-2
	v-58c0-1.6-1.3-2.9-2.9-2.9C108.5,16.9,108.4,16.9,108.2,16.9z"/>
<path class="st0" d="M20.5,108.3h61.9c1.6,0,2.9-1.3,2.8-2.9c0-0.7-0.3-1.5-0.8-2L41.6,60.7c-1.1-1.1-3-1.1-4.1,0
	c-0.1,0.1-0.2,0.2-0.3,0.3c-1.3,1.8-2.6,3.7-3.8,5.6c-0.7,1.2-0.5,2.7,0.5,3.6l26,26h-38c-1.3,0-2.5,0.9-2.8,2.1
	c-0.6,2.2-1.1,4.4-1.5,6.6c-0.3,1.6,0.8,3.1,2.4,3.4C20.1,108.3,20.3,108.3,20.5,108.3z"/>
<path class="st0" d="M56.7,44.2c-1.1-1.1-2.8-1.2-4-0.1c-1.6,1.4-3.2,2.9-4.8,4.5c-1.1,1.1-1.1,2.9,0,4.1l50.6,50.5
	c0.5,0.5,0.8,1.2,0.8,2v10.4c0,1.6-1.3,2.9-2.9,2.9c0,0,0,0,0,0H18.4c-1.5,0-2.8,1.2-2.9,2.7c-0.2,2-0.3,4-0.2,6
	c0,2.9,1.3,3.5,4,3.5h77.2c1.6,0,2.9,1.3,2.9,2.8c0,0,0,0,0,0v67.2c0,0.5-0.2,1.1-0.4,1.5l-14.2,25.8c-0.9,1.3-0.5,3.1,0.9,4
	c0.1,0.1,0.3,0.2,0.4,0.2c2.1,0.9,4.2,1.6,6.3,2.4c1.3,0.4,2.7-0.1,3.4-1.2l15.4-27.7c0.3-0.5,0.5-1,0.4-1.5V100.2
	c0-0.8-0.3-1.5-0.8-2L56.7,44.2z"/>
<path class="st0" d="M336.3,189.6c-1.4-1.7-3.3-2.9-5.3-3.7c-2.4-0.9-4.9-1.3-7.4-1.3h-8.9v37h8.9c2.5,0.1,5.1-0.4,7.4-1.3
	c2-0.8,3.8-2.1,5.3-3.8c1.4-1.7,2.5-3.7,3.1-5.9c0.7-2.5,1-5,1-7.6c0-2.5-0.3-5.1-1-7.5C338.7,193.3,337.7,191.3,336.3,189.6z
	 M318.2,187.7h5.1c2.1,0,4.2,0.3,6.1,1.1c1.6,0.7,3,1.7,4.1,3.1c1.1,1.4,1.9,3,2.4,4.8c0.6,2,0.8,4.1,0.8,6.3c0,2.1-0.2,4.3-0.8,6.3
	c-0.5,1.8-1.3,3.4-2.4,4.9c-1.1,1.4-2.5,2.5-4.2,3.2c-1.9,0.8-4,1.2-6.1,1.1h-5.1L318.2,187.7z"/>
<path class="st0" d="M348.9,183.7c-0.7,0-1.4,0.2-1.9,0.7c-0.5,0.5-0.8,1.2-0.8,2c0,0.7,0.3,1.4,0.8,1.9c1.1,1,2.7,1,3.8,0
	c1-1.1,1-2.8,0-3.9C350.3,183.9,349.6,183.7,348.9,183.7z"/>
<rect x="347.1" y="194.3" class="st0" width="3.4" height="27.2"/>
<path class="st0" d="M368,193.7c-1.5,0-3.1,0.3-4.5,1c-1.5,0.7-2.8,1.7-3.8,2.9c-1.2,1.3-2.1,2.8-2.7,4.5c-0.7,1.9-1,4-1,6
	c0,2,0.3,4,1,5.9c0.6,1.7,1.5,3.2,2.7,4.5c1.1,1.2,2.5,2.2,4,2.8c3.2,1.3,6.7,1.3,9.9,0.1c1.2-0.5,2.4-1.1,3.5-1.8l0.4-0.2l-1.5-2.8
	l-0.5,0.4c-0.9,0.7-2,1.3-3.1,1.6c-1.2,0.4-2.4,0.6-3.7,0.6c-1.3,0-2.6-0.3-3.8-0.8c-1.1-0.5-2.1-1.3-2.9-2.2
	c-0.8-1-1.5-2.2-1.9-3.4c-0.4-1.3-0.7-2.6-0.7-3.9h18.8l0.1-0.4c0.1-0.4,0.1-0.7,0.1-1.1v-1c0-4-0.9-7.1-2.8-9.3
	C373.8,194.8,371,193.6,368,193.7z M375.3,205.8h-15.7c0.1-1.2,0.4-2.4,0.9-3.5c0.5-1.1,1.1-2.1,1.9-3c0.7-0.8,1.6-1.4,2.6-1.9
	c0.9-0.4,2-0.6,3-0.6c2-0.1,4,0.8,5.2,2.3C374.5,200.5,375.2,202.8,375.3,205.8L375.3,205.8z"/>
<path class="st0" d="M414.5,201.7c1.3-0.6,2.4-1.5,3.2-2.6c1-1.6,1.5-3.4,1.5-5.2c0-3.2-1.2-5.6-3.5-7.1c-2.7-1.6-5.9-2.3-9-2.2
	h-10.2v37h10.9c1.9,0,3.8-0.2,5.7-0.7c1.6-0.4,3.1-1.1,4.4-2c1.2-0.9,2.2-2.1,2.9-3.5c0.7-1.5,1-3.2,1-4.8c0.1-2.3-0.7-4.6-2.3-6.3
	C417.8,203,416.2,202.1,414.5,201.7z M400.1,203.5h6.8c3.6,0,6.4,0.6,8.3,1.8c1.9,1.1,2.9,3.2,2.8,5.4c0,2.7-0.9,4.7-2.9,5.9
	s-4.7,1.9-8.2,1.9h-6.8L400.1,203.5z M413.4,198.7c-1.5,1.1-4.1,1.7-7.7,1.7h-5.7v-12.8h6c3.2,0,5.7,0.5,7.3,1.5s2.3,2.6,2.3,5
	C415.7,195.9,414.9,197.6,413.4,198.7z"/>
<path class="st0" d="M437.3,193.7c-1.5,0-3.1,0.3-4.4,1c-1.5,0.7-2.8,1.7-3.8,2.9c-1.2,1.3-2.1,2.8-2.7,4.5c-0.7,1.9-1,4-1,6
	c0,2,0.3,4,1,5.9c0.6,1.7,1.5,3.2,2.7,4.5c1.1,1.2,2.5,2.2,4,2.8c3.2,1.3,6.7,1.3,9.9,0.1c1.2-0.5,2.4-1.1,3.5-1.8l0.4-0.2l-1.5-2.8
	l-0.5,0.4c-0.9,0.7-2,1.3-3.1,1.6c-1.2,0.4-2.4,0.6-3.7,0.6c-1.3,0-2.6-0.3-3.8-0.8c-1.1-0.5-2.1-1.3-2.9-2.2
	c-0.8-1-1.5-2.2-1.9-3.4c-0.4-1.3-0.7-2.6-0.7-3.9h18.8l0.1-0.4c0.1-0.4,0.1-0.7,0.1-1.1v-1c0-4-0.9-7.1-2.8-9.3
	C443.1,194.8,440.3,193.6,437.3,193.7z M444.6,205.8h-15.7c0.1-1.2,0.4-2.4,0.9-3.5c0.5-1.1,1.1-2.1,1.9-3c0.7-0.8,1.6-1.4,2.6-1.9
	c0.9-0.4,2-0.6,3-0.6c2-0.1,4,0.8,5.2,2.3C443.9,200.5,444.5,202.8,444.6,205.8L444.6,205.8z"/>
<path class="st0" d="M468.1,208.6c-0.9-0.6-1.8-1.1-2.9-1.5l-3.1-1.2c-0.8-0.3-1.5-0.6-2.3-0.9c-0.7-0.3-1.3-0.6-1.9-1
	c-0.5-0.3-0.9-0.8-1.3-1.3c-0.3-0.5-0.5-1.1-0.4-1.7c0-0.5,0.1-1.1,0.3-1.6c0.2-0.5,0.6-1,1-1.3c0.5-0.4,1.1-0.8,1.7-1
	c0.8-0.3,1.6-0.4,2.5-0.4c1.1,0,2.3,0.2,3.3,0.6c1,0.4,1.9,1,2.7,1.6l0.4,0.3l1.9-2.5l-0.4-0.3c-1.1-0.9-2.3-1.6-3.6-2
	c-2.6-1-5.4-1.1-8-0.2c-1,0.3-2,0.9-2.8,1.6c-0.8,0.7-1.4,1.5-1.8,2.4c-0.4,0.9-0.6,1.9-0.6,2.9c0,1.1,0.2,2.2,0.8,3.1
	c0.5,0.9,1.2,1.6,2.1,2.2c0.9,0.6,1.8,1.1,2.8,1.5c1,0.4,2,0.8,3,1.1c0.8,0.3,1.5,0.6,2.2,0.9c0.7,0.3,1.4,0.7,2,1.1
	c0.5,0.4,1,0.9,1.4,1.4c0.3,0.6,0.5,1.2,0.5,1.9c0,1.2-0.5,2.4-1.4,3.3c-1.2,1.1-2.8,1.6-4.4,1.4c-1.6,0.1-3.1-0.3-4.5-0.9
	c-1.3-0.6-2.4-1.4-3.5-2.3l-0.4-0.3l-2,2.6l0.4,0.3c1.3,1.1,2.8,2,4.3,2.6c1.8,0.8,3.7,1.1,5.6,1.1c1.3,0,2.7-0.2,3.9-0.6
	c1.1-0.4,2.1-1,3-1.7c0.8-0.7,1.4-1.6,1.8-2.5c0.4-0.9,0.6-2,0.6-3c0-1.2-0.2-2.4-0.8-3.5C469.8,210,469,209.2,468.1,208.6z"/>
<path class="st0" d="M488.3,218.3c-0.5,0.2-1,0.4-1.5,0.5c-1.2,0.4-2.4,0.3-3.5-0.1c-0.5-0.2-0.9-0.6-1.1-1c-0.3-0.5-0.5-1-0.6-1.6
	c-0.1-0.7-0.2-1.4-0.2-2.2v-16.6h7.7v-3.1h-7.6v-7.6h-3.1l-0.3,7.6l-4.2,0.2v2.8h4.1v16.4c0,1.1,0.1,2.2,0.3,3.3
	c0.2,1,0.6,1.9,1.2,2.7c0.6,0.8,1.3,1.4,2.2,1.8c1.1,0.4,2.2,0.7,3.4,0.6c0.7,0,1.4-0.1,2.1-0.3c0.8-0.2,1.6-0.4,2.4-0.7l0.5-0.2
	l-1-3L488.3,218.3z"/>
<path class="st0" d="M510.9,196.8c-0.7-1-1.7-1.8-2.8-2.3c-1.3-0.6-2.7-0.9-4.1-0.9c-1.1,0-2.1,0.1-3.2,0.4
	c-0.9,0.2-1.9,0.5-2.8,0.9c-0.8,0.3-1.6,0.7-2.3,1.1c-0.7,0.4-1.3,0.8-1.8,1.1l-0.4,0.3l1.6,2.7l0.4-0.3c1.1-0.8,2.3-1.4,3.5-2
	c1.4-0.7,3-1,4.6-1c1,0,2,0.2,2.9,0.7c0.7,0.4,1.3,1,1.8,1.7c0.4,0.8,0.7,1.6,0.9,2.5c0.1,0.8,0.2,1.6,0.2,2.5
	c-5.7,0.7-9.9,1.8-12.6,3.3c-2.7,1.3-4.4,4.1-4.3,7.1c0,1.2,0.2,2.3,0.6,3.4c0.4,0.9,1,1.8,1.8,2.4c0.8,0.6,1.6,1.1,2.6,1.4
	c1,0.3,2.1,0.5,3.1,0.5c1.8,0,3.6-0.4,5.2-1.3c1.3-0.7,2.6-1.5,3.8-2.4l0.2,3h3.1v-17.2c0-1.4-0.1-2.7-0.5-4.1
	C512.2,199,511.7,197.9,510.9,196.8z M509.5,207.1v8.1c-1.3,1.1-2.7,2.1-4.3,3c-1.3,0.7-2.7,1-4.1,1c-0.7,0-1.4-0.1-2-0.3
	c-0.6-0.2-1.1-0.4-1.6-0.8c-0.5-0.4-0.8-0.9-1.1-1.4c-0.3-0.7-0.4-1.4-0.4-2.2c0-0.9,0.2-1.8,0.7-2.5c0.6-0.9,1.3-1.6,2.2-2.1
	c1.4-0.7,2.8-1.3,4.3-1.6C505.3,207.7,507.4,207.3,509.5,207.1L509.5,207.1z"/>
<path class="st0" d="M531.2,218.3c-0.5,0.2-1,0.4-1.5,0.5c-1.2,0.4-2.4,0.3-3.5-0.1c-0.5-0.2-0.9-0.6-1.1-1c-0.3-0.5-0.5-1-0.6-1.6
	c-0.1-0.7-0.2-1.4-0.2-2.2v-16.6h7.6v-3.1h-7.6v-7.6h-3l-0.3,7.6l-4.2,0.2v2.8h4.1v16.4c0,1.1,0.1,2.2,0.3,3.3
	c0.2,1,0.6,1.9,1.2,2.7c0.6,0.8,1.3,1.4,2.2,1.8c1.1,0.4,2.2,0.7,3.4,0.6c0.7,0,1.4-0.1,2.1-0.3c0.8-0.2,1.6-0.4,2.3-0.7l0.5-0.2
	l-1-3L531.2,218.3z"/>
<path class="st0" d="M549.5,218.3c-0.5,0.2-1,0.4-1.5,0.5c-1.2,0.4-2.4,0.3-3.5-0.1c-0.5-0.2-0.9-0.6-1.1-1c-0.3-0.5-0.5-1-0.6-1.6
	c-0.1-0.7-0.2-1.4-0.2-2.2v-16.6h7.6v-3.1h-7.6v-7.6h-3l-0.3,7.6l-4.2,0.2v2.8h4.1v16.4c0,1.1,0.1,2.2,0.3,3.3
	c0.2,1,0.6,1.9,1.2,2.7c0.6,0.8,1.3,1.4,2.2,1.8c1.1,0.4,2.2,0.7,3.4,0.6c0.7,0,1.4-0.1,2.1-0.3c0.8-0.2,1.6-0.4,2.3-0.7l0.5-0.2
	l-1-3L549.5,218.3z"/>
<path class="st0" d="M571.5,214c-1.2,1.5-2.5,2.7-4,3.8c-1.2,0.8-2.6,1.2-4,1.2c-1.6,0.2-3.2-0.5-4.2-1.8c-0.9-1.2-1.3-3.2-1.3-5.9
	v-17h-3.4v17.3c0,3.5,0.7,6.2,2,7.9s3.5,2.6,6.4,2.6c1.8,0,3.6-0.5,5.1-1.5c1.3-0.8,2.4-1.8,3.5-3l0.2,3.7h3v-27.2h-3.4L571.5,214z"
	/>
<path class="st0" d="M595.9,193.7c-1.8,0-3.6,0.5-5.1,1.4c-1.3,0.8-2.5,1.8-3.6,2.8l-0.2-3.6h-3v27.2h3.4v-20.1
	c1.2-1.3,2.6-2.5,4.1-3.5c1.2-0.8,2.6-1.2,4-1.1c2,0,3.4,0.6,4.2,1.8s1.3,3.2,1.3,5.9v17h3.4v-17.3c0-3.5-0.7-6.2-2-7.9
	S598.8,193.7,595.9,193.7z"/>
<path class="st0" d="M631.7,219.9c-1.5-1-3.8-1.5-6.8-1.5h-5.6c-1.8,0-3-0.3-3.6-0.9c-0.6-0.5-0.9-1.3-0.9-2.1
	c0-0.7,0.2-1.3,0.5-1.9c0.3-0.5,0.7-0.9,1.2-1.3c0.6,0.3,1.3,0.6,1.9,0.7c2,0.5,4.2,0.4,6.2-0.4c1.1-0.5,2.2-1.1,3.1-2
	c0.9-0.9,1.5-1.9,2-3.1c0.5-1.2,0.8-2.6,0.8-3.9c0-1.4-0.3-2.7-0.9-4c-0.4-0.8-0.8-1.5-1.3-2.1h5.4v-3h-9.3c-0.5-0.2-1-0.4-1.5-0.5
	c-0.7-0.1-1.4-0.2-2.1-0.2c-1.3,0-2.6,0.2-3.8,0.7c-1.2,0.5-2.2,1.1-3.1,2c-0.9,0.9-1.6,1.9-2.1,3.1c-0.5,1.2-0.8,2.6-0.8,3.9
	c0,1.6,0.3,3.1,1.1,4.5c0.5,1,1.2,2,2,2.8c-0.6,0.5-1.1,1-1.6,1.6c-0.7,0.9-1.1,2.1-1.1,3.3c0,1,0.2,2,0.7,2.8
	c0.4,0.6,0.8,1.1,1.3,1.5c-1,0.8-1.8,1.7-2.5,2.8c-0.7,1.1-1.1,2.4-1.1,3.7c0,2.3,1.1,4.5,3.1,5.7c2.5,1.5,5.3,2.2,8.2,2.1
	c1.8,0,3.6-0.2,5.3-0.8c1.4-0.4,2.8-1.1,4-2c1.1-0.8,2-1.8,2.6-3c0.6-1.1,0.9-2.3,0.9-3.5C634.1,223,633.3,221,631.7,219.9z
	 M621.4,231.2c-2.2,0.1-4.3-0.4-6.2-1.4c-1.3-0.7-2.1-2.1-2-3.6c0-0.9,0.3-1.8,0.8-2.6c0.6-0.9,1.4-1.8,2.3-2.4
	c0.6,0.2,1.2,0.3,1.8,0.3c0.6,0.1,1.1,0.1,1.4,0.1h5.6c1.5-0.1,2.9,0.2,4.2,0.8c0.9,0.6,1.5,1.6,1.3,2.7c0,0.8-0.2,1.5-0.6,2.2
	c-0.5,0.8-1.1,1.4-1.8,2c-0.9,0.6-1.9,1.1-2.9,1.4C624,231.1,622.7,231.3,621.4,231.2z M614.4,203.4c0-1,0.2-1.9,0.5-2.9
	c0.3-0.8,0.8-1.5,1.4-2.1c1.2-1.2,2.8-1.8,4.5-1.8c0.8,0,1.7,0.2,2.4,0.5c0.8,0.3,1.4,0.8,2,1.3c0.6,0.6,1,1.3,1.3,2.1
	c0.7,1.8,0.7,3.8,0,5.6c-0.3,0.8-0.8,1.6-1.4,2.2c-0.6,0.6-1.2,1.1-2,1.4c-2.3,1-5.1,0.4-6.8-1.4c-0.6-0.6-1.1-1.4-1.4-2.2
	C614.5,205.3,614.4,204.4,614.4,203.4L614.4,203.4z"/>
<rect x="649.3" y="194.3" class="st0" width="3.4" height="27.2"/>
<path class="st0" d="M651.1,183.7c-0.7,0-1.4,0.2-1.9,0.7c-0.5,0.5-0.8,1.2-0.8,2c0,0.7,0.3,1.4,0.8,1.9c1.1,1,2.7,1,3.8,0
	c1-1.1,1-2.8,0-3.9C652.5,183.9,651.8,183.7,651.1,183.7z"/>
<path class="st0" d="M673.4,193.7c-1.8,0-3.6,0.5-5.1,1.4c-1.3,0.8-2.5,1.8-3.6,2.8l-0.2-3.6h-3v27.2h3.4v-20.1
	c1.2-1.3,2.6-2.5,4.1-3.5c1.2-0.8,2.6-1.2,4-1.1c2,0,3.4,0.6,4.2,1.8s1.3,3.2,1.3,5.9v17h3.4v-17.3c0-3.5-0.7-6.2-2-7.9
	S676.3,193.7,673.4,193.7z"/>
<path class="st0" d="M718.7,192.6l0.1,3.8c-0.9-0.7-1.9-1.3-3-1.8c-1.4-0.6-2.9-0.9-4.4-0.9c-1.6,0-3.2,0.3-4.7,1
	c-1.5,0.7-2.8,1.7-3.9,2.9c-1.2,1.3-2.1,2.9-2.6,4.5c-0.7,1.9-1,3.9-1,5.9c0,4.5,1,8.1,3.1,10.5c2,2.5,5.1,3.8,8.3,3.7
	c1.8,0,3.5-0.4,5-1.3c1.2-0.6,2.2-1.4,3.2-2.3l0.2,2.9h3v-40.3h-3.4L718.7,192.6z M718.7,199.9v15.1c-1.1,1.2-2.4,2.2-3.8,3
	c-1.2,0.7-2.6,1.1-3.9,1.1c-2.4,0.1-4.6-1.1-6-3c-0.7-1.1-1.3-2.2-1.6-3.5c-0.4-1.5-0.6-3.1-0.6-4.6c0-1.5,0.2-3,0.7-4.5
	c0.4-1.3,1-2.5,1.9-3.6c0.7-1,1.7-1.8,2.8-2.3c1.1-0.6,2.2-0.9,3.4-0.9c1.2,0,2.4,0.3,3.5,0.7C716.4,198.2,717.6,199,718.7,199.9z"
	/>
<path class="st0" d="M741,193.7c-1.5,0-3.1,0.3-4.5,1c-1.5,0.7-2.8,1.7-3.8,2.9c-1.2,1.3-2.1,2.8-2.7,4.5c-0.7,1.9-1,4-1,6
	c0,2,0.3,4,1,5.9c0.6,1.7,1.5,3.2,2.7,4.5c1.1,1.2,2.5,2.2,4,2.8c3.2,1.3,6.7,1.3,9.9,0.1c1.2-0.5,2.4-1.1,3.5-1.8l0.4-0.2l-1.5-2.8
	l-0.5,0.4c-0.9,0.7-2,1.3-3.1,1.6c-1.2,0.4-2.4,0.6-3.7,0.6c-1.3,0-2.6-0.3-3.8-0.8c-1.1-0.5-2.1-1.3-2.9-2.2
	c-0.8-1-1.5-2.2-1.9-3.4c-0.4-1.3-0.7-2.6-0.7-3.9h18.8l0.1-0.4c0.1-0.4,0.1-0.7,0.1-1.1v-1c0-4-0.9-7.1-2.8-9.3
	C746.8,194.8,743.9,193.6,741,193.7z M748.2,205.8h-15.7c0.1-1.2,0.4-2.4,0.9-3.5c0.5-1.1,1.1-2.1,1.9-3c0.7-0.8,1.6-1.4,2.6-1.9
	c0.9-0.4,2-0.6,3-0.6c2-0.1,4,0.8,5.2,2.3C747.5,200.5,748.2,202.8,748.2,205.8L748.2,205.8z"/>
<path class="st0" d="M769.8,193.8c-0.5-0.1-1-0.1-1.5-0.1c-1.7,0-3.3,0.6-4.5,1.6c-1,0.8-1.9,1.8-2.6,2.9l-0.2-3.9h-3.1v27.2h3.4
	v-18.3c0.7-1.9,1.8-3.6,3.3-4.9c0.9-0.8,2.1-1.3,3.4-1.4c0.4,0,0.8,0,1.2,0.1c0.3,0.1,0.7,0.2,1,0.3l0.5,0.2l0.8-3.1l-0.4-0.2
	C770.7,194.1,770.3,193.9,769.8,193.8z"/>
<path class="st0" d="M806.8,207.2c0,1.8,0,3.5,0.1,5.3l0.2,3.6l-3.3-5.9l-15.3-25.7h-3.4v37h3.4v-22.8c0-1.7,0-3.5-0.1-5.1
	c0-1.1-0.1-2.3-0.2-3.5l3.3,5.8l15.3,25.7h3.4v-37h-3.4V207.2z"/>
<path class="st0" d="M835.7,196.8c-0.7-1-1.7-1.8-2.8-2.3c-1.3-0.6-2.7-0.9-4.1-0.9c-1.1,0-2.1,0.1-3.2,0.4c-1,0.2-1.9,0.5-2.8,0.9
	c-0.8,0.3-1.6,0.7-2.3,1.1c-0.7,0.4-1.3,0.8-1.8,1.1l-0.4,0.3l1.6,2.7l0.4-0.3c1.1-0.8,2.3-1.4,3.5-2c1.4-0.7,3-1,4.6-1
	c1,0,2,0.2,2.9,0.7c0.7,0.4,1.3,1,1.7,1.7c0.5,0.8,0.7,1.6,0.9,2.5c0.1,0.8,0.2,1.6,0.2,2.5c-5.7,0.7-9.9,1.8-12.6,3.3
	c-2.7,1.3-4.4,4.1-4.3,7.1c0,1.2,0.2,2.3,0.6,3.4c0.4,0.9,1,1.8,1.8,2.4c0.8,0.6,1.6,1.1,2.6,1.4c1,0.3,2,0.5,3.1,0.5
	c1.8,0,3.6-0.4,5.2-1.3c1.3-0.7,2.6-1.5,3.8-2.4l0.2,3h3v-17.2c0-1.4-0.1-2.7-0.5-4.1C836.9,199,836.4,197.9,835.7,196.8z
	 M834.3,207.1v8.1c-1.3,1.1-2.7,2.1-4.3,3c-1.3,0.7-2.7,1-4.1,1c-0.7,0-1.4-0.1-2-0.3c-0.6-0.2-1.1-0.5-1.6-0.8
	c-0.5-0.4-0.8-0.9-1.1-1.4c-0.3-0.7-0.4-1.4-0.4-2.2c0-0.9,0.2-1.8,0.7-2.5c0.6-0.9,1.3-1.6,2.2-2.1c1.4-0.7,2.8-1.3,4.3-1.6
	C830.1,207.7,832.2,207.3,834.3,207.1L834.3,207.1z"/>
<path class="st0" d="M856.8,218.3c-0.5,0.2-1,0.4-1.5,0.5c-1.2,0.4-2.4,0.3-3.5-0.1c-0.5-0.2-0.9-0.6-1.1-1c-0.3-0.5-0.5-1-0.6-1.6
	c-0.1-0.7-0.2-1.4-0.2-2.2v-16.6h7.6v-3.1h-7.6v-7.6h-3.1l-0.3,7.6l-4.2,0.2v2.8h4.1v16.4c0,1.1,0.1,2.2,0.3,3.3
	c0.2,1,0.6,1.9,1.2,2.7c0.6,0.8,1.3,1.4,2.2,1.8c1.1,0.4,2.2,0.7,3.4,0.6c0.7,0,1.4-0.1,2.1-0.3c0.8-0.2,1.6-0.4,2.4-0.7l0.5-0.2
	l-1-3L856.8,218.3z"/>
<path class="st0" d="M878.9,214c-1.1,1.5-2.5,2.7-4,3.8c-1.2,0.8-2.6,1.2-4,1.2c-1.6,0.2-3.2-0.5-4.2-1.8c-0.9-1.2-1.3-3.2-1.3-5.9
	v-17h-3.4v17.3c0,3.5,0.7,6.2,2,7.9s3.5,2.6,6.4,2.6c1.8,0,3.6-0.5,5.1-1.5c1.3-0.8,2.4-1.8,3.5-3l0.2,3.7h3v-27.2h-3.4V214z"/>
<path class="st0" d="M902.5,194.3c-0.4-0.2-0.9-0.4-1.4-0.5c-0.5-0.1-1-0.1-1.4-0.1c-1.7,0-3.3,0.6-4.5,1.6c-1,0.8-1.9,1.8-2.6,2.9
	l-0.2-3.9h-3v27.2h3.4v-18.3c0.7-1.9,1.8-3.6,3.3-4.9c0.9-0.8,2.1-1.3,3.4-1.4c0.4,0,0.8,0,1.2,0.1c0.3,0.1,0.7,0.2,1,0.3l0.5,0.2
	l0.8-3.1L902.5,194.3z"/>
</svg>
