<?xml version="1.0" encoding="utf-8"?>
<!-- Generator: Adobe Illustrator 27.0.1, SVG Export Plug-In . SVG Version: 6.00 Build 0)  -->
<svg version="1.1" id="Ebene_1" xmlns="http://www.w3.org/2000/svg" xmlns:xlink="http://www.w3.org/1999/xlink" x="0px" y="0px"
	 viewBox="0 0 203.5 258.1" style="enable-background:new 0 0 203.5 258.1;" xml:space="preserve">
<style type="text/css">
	.st0{fill:#8FBF21;}
</style>
<g>
	<g>
		<path class="st0" d="M119,258.1c-2.9,0-5.3-2.4-5.3-5.3V41.4c0-2.9,2.4-5.3,5.3-5.3s5.3,2.4,5.3,5.3v211.4
			C124.3,255.8,121.9,258.1,119,258.1z"/>
	</g>
	<g>
		<path class="st0" d="M119,115.8c-1.5,0-3-0.6-4-1.8c-1.9-2.2-1.7-5.6,0.5-7.5l27.3-23.7c2.2-1.9,5.6-1.7,7.5,0.5
			c1.9,2.2,1.7,5.6-0.5,7.5l-27.3,23.7C121.5,115.4,120.2,115.8,119,115.8z"/>
	</g>
	<g>
		<path class="st0" d="M119,156.7c-0.9,0-1.7-0.2-2.5-0.6l-62.8-33.7c-2.6-1.4-3.6-4.6-2.2-7.2c1.4-2.6,4.6-3.6,7.2-2.2l62.8,33.7
			c2.6,1.4,3.6,4.6,2.2,7.2C122.7,155.7,120.9,156.7,119,156.7z"/>
	</g>
	<g>
		<path class="st0" d="M57.2,179.2C25.7,179.2,0,153.6,0,122s25.7-57.2,57.2-57.2c4.5,0,8.9,0.5,13.2,1.5c2.9,0.7,4.6,3.5,3.9,6.4
			c-0.7,2.8-3.5,4.6-6.4,3.9c-3.5-0.8-7.1-1.2-10.7-1.2c-25.7,0-46.6,20.9-46.6,46.6c0,25.7,20.9,46.6,46.6,46.6
			c9.3,0,18.3-2.7,26-7.9c2.4-1.7,5.7-1,7.4,1.4c1.6,2.4,1,5.7-1.4,7.4C79.7,175.8,68.6,179.2,57.2,179.2z"/>
	</g>
	<g>
		<path class="st0" d="M69.1,76.9c-2.3,0-4.4-1.5-5.1-3.8c-1.5-5.1-2.2-10.5-2.2-15.8C61.8,25.7,87.5,0,119,0
			c24.3,0,46,15.4,54,38.3c1,2.8-0.5,5.8-3.3,6.8c-2.8,1-5.8-0.5-6.8-3.3c-6.5-18.7-24.2-31.2-44-31.2c-25.7,0-46.6,20.9-46.6,46.6
			c0,4.4,0.6,8.7,1.8,12.9c0.8,2.8-0.8,5.8-3.6,6.6C70.1,76.8,69.6,76.9,69.1,76.9z"/>
	</g>
	<g>
		<path class="st0" d="M179.7,132.2c-1.5,0-3-0.6-4.1-1.9c-1.9-2.2-1.6-5.6,0.7-7.5c10.6-8.9,16.6-21.9,16.6-35.7
			c0-18.1-10.6-34.7-27.1-42.3c-2.7-1.2-3.8-4.4-2.6-7c1.2-2.7,4.4-3.8,7-2.6c20.2,9.3,33.3,29.7,33.3,52c0,16.9-7.4,32.9-20.4,43.8
			C182.1,131.8,180.9,132.2,179.7,132.2z"/>
	</g>
	<g>
		<path class="st0" d="M128.4,192.5c-18.6,0-36-9.1-46.7-24.3c-1.7-2.4-1.1-5.7,1.3-7.4c2.4-1.7,5.7-1.1,7.4,1.3
			c8.7,12.4,23,19.7,38.1,19.7c25.7,0,46.6-20.9,46.6-46.6c0-2.6-0.2-5.1-0.6-7.5c-0.5-2.9,1.5-5.6,4.4-6.1c2.9-0.5,5.6,1.5,6.1,4.4
			c0.5,3,0.7,6.1,0.7,9.2C185.6,166.8,160,192.5,128.4,192.5z"/>
	</g>
</g>
</svg>
